<svg id="Capa_1" enable-background="new 0 0 512 512" height="512" viewBox="0 0 512 512" width="512" xmlns="http://www.w3.org/2000/svg"><g><g><path d="m255 240c-8.291 0-15-6.709-15-15v-33.032c-37.266-19.365-60-51.987-60-86.968 0-57.891 60.557-105 135-105s135 47.109 135 105-60.557 105-135 105c-.117 0-.205 0-.322 0-14.092 18.706-36.182 30-59.678 30z" fill="#59c8ff"/></g><path d="m450 105c0-57.891-60.557-105-135-105v210c74.443 0 135-47.109 135-105z" fill="#4da6ff"/><g id="Call_2_"><g><path d="m285 512c-8.291 0-15-6.709-15-15 0-24.814 20.186-45 45-45h137c16.553 0 30-13.462 30-30s-13.447-30-30-30h-85.789c-8.291 0-15-6.709-15-15s6.709-15 15-15h85.789c33.076 0 60 26.909 60 60s-26.924 60-60 60h-137c-8.262 0-15 6.724-15 15 0 8.291-6.709 15-15 15z" fill="#d9e5ff"/></g><g><circle cx="255" cy="105" fill="#ecf2ff" r="15"/></g><g><circle cx="315" cy="105" fill="#ecf2ff" r="15"/></g><g><circle cx="375" cy="105" fill="#ecf2ff" r="15"/></g></g><g><path d="m371.1 302.899-90-30c-4.501-1.5-9.298-.899-13.202 1.5l-38.101 25.501c-20.398-9.6-42.297-26.4-61.798-45.901-19.501-19.499-36.299-41.4-45.897-61.8l25.496-38.099c2.402-3.9 3.003-8.701 1.501-13.2l-30-90c-1.802-6-7.8-10.201-14.099-10.201h-60c-24.902 0-45 20.4-45 45 0 86.4 40.8 170.4 103.198 233.101 62.403 62.4 146.704 103.2 233.101 103.2 24.602 0 45-20.101 45-45v-60c0-6.601-4.197-12.301-10.199-14.101z" fill="#4d5e80"/></g><path d="m330 105c0-8.286-6.716-15-15-15v30c8.284 0 15-6.716 15-15z" fill="#d9e5ff"/><path d="m381.299 317v60c0 24.899-20.398 45-45 45-86.396 0-170.698-40.8-233.101-103.2l64.801-64.801c19.501 19.501 41.4 36.301 61.798 45.901l38.101-25.501c3.904-2.399 8.701-2.999 13.202-1.5l90 30c6.002 1.8 10.199 7.5 10.199 14.101z" fill="#3d4566"/></g></svg>