<?xml version="1.0" encoding="UTF-8" standalone="no"?>
<svg
   id="Icon"
   width="512"
   height="512"
   viewBox="0 0 64 64"
   version="1.1"
   sodipodi:docname="assignment-white.svg"
   inkscape:version="1.1 (c4e8f9e, 2021-05-24)"
   xmlns:inkscape="http://www.inkscape.org/namespaces/inkscape"
   xmlns:sodipodi="http://sodipodi.sourceforge.net/DTD/sodipodi-0.dtd"
   xmlns="http://www.w3.org/2000/svg"
   xmlns:svg="http://www.w3.org/2000/svg">
  <defs
     id="defs946" />
  <sodipodi:namedview
     id="namedview944"
     pagecolor="#ffffff"
     bordercolor="#666666"
     borderopacity="1.0"
     inkscape:pageshadow="2"
     inkscape:pageopacity="0.0"
     inkscape:pagecheckerboard="0"
     showgrid="false"
     showguides="true"
     inkscape:guide-bbox="true"
     inkscape:zoom="0.4140625"
     inkscape:cx="183.54717"
     inkscape:cy="-60.377358"
     inkscape:window-width="1920"
     inkscape:window-height="1025"
     inkscape:window-x="3520"
     inkscape:window-y="27"
     inkscape:window-maximized="1"
     inkscape:current-layer="Icon">
    <sodipodi:guide
       position="63.622642,-2.7924528"
       orientation="0,-1"
       id="guide1237" />
  </sodipodi:namedview>
  <g
     id="g1461">
    <path
       d="M15,17.5A14.5,14.5,0,1,0,29.5,32,14.51669,14.51669,0,0,0,15,17.5Zm8.21289,10.38232-8,11a1.49957,1.49957,0,0,1-2.35156.09375l-6-7a1.49976,1.49976,0,1,1,2.27734-1.95214l4.76465,5.55859,6.88379-9.46484a1.49986,1.49986,0,1,1,2.42578,1.76464Z"
       style="fill:#3e3ef4"
       id="path927" />
    <path
       d="M59,6.5H55.5V5A4.50491,4.50491,0,0,0,51,.5H11A4.50491,4.50491,0,0,0,6.5,5v9.353a1.5,1.5,0,0,0,3,0V5A1.50164,1.50164,0,0,1,11,3.5h3.77643A4.44744,4.44744,0,0,0,14.5,5V9a4.5,4.5,0,0,0,9,0V7a1.5,1.5,0,0,0-3,0V9a1.5,1.5,0,0,1-3,0V5A1.50164,1.50164,0,0,1,19,3.5H51A1.50164,1.50164,0,0,1,52.5,5V53A1.50164,1.50164,0,0,1,51,54.5H11A1.50164,1.50164,0,0,1,9.5,53V49.647a1.5,1.5,0,0,0-3,0V53A4.50491,4.50491,0,0,0,11,57.5h3.5V59A4.50491,4.50491,0,0,0,19,63.5H59A4.50491,4.50491,0,0,0,63.5,59V11A4.50491,4.50491,0,0,0,59,6.5ZM60.5,59A1.50164,1.50164,0,0,1,59,60.5H19A1.50164,1.50164,0,0,1,17.5,59V57.5H51A4.50491,4.50491,0,0,0,55.5,53V9.5H59A1.50164,1.50164,0,0,1,60.5,11Z"
       id="path929"
       style="fill:#f2f2f2" />
    <g
       id="g1240">
      <path
         d="M48,6.5H36a1.5,1.5,0,0,0,0,3H48a1.5,1.5,0,0,0,0-3Z"
         id="path931"
         style="fill:#f2f2f2" />
    </g>
    <path
       d="M48,12.5H40a1.5,1.5,0,0,0,0,3h8a1.5,1.5,0,0,0,0-3Z"
       id="path933"
       style="fill:#f2f2f2" />
    <path
       d="M30.5,24A1.49977,1.49977,0,0,0,32,25.5H48a1.5,1.5,0,0,0,0-3H32A1.49977,1.49977,0,0,0,30.5,24Z"
       id="path935"
       style="fill:#f2f2f2" />
    <path
       d="M48,30.5H34a1.5,1.5,0,0,0,0,3H48a1.5,1.5,0,0,0,0-3Z"
       id="path937"
       style="fill:#f2f2f2" />
    <path
       d="M32,41.5H48a1.5,1.5,0,0,0,0-3H32a1.5,1.5,0,0,0,0,3Z"
       id="path939"
       style="fill:#f2f2f2" />
    <path
       d="M24.5,48A1.49977,1.49977,0,0,0,26,49.5H48a1.5,1.5,0,0,0,0-3H26A1.49977,1.49977,0,0,0,24.5,48Z"
       id="path941"
       style="fill:#f2f2f2" />
  </g>
</svg>
