<?xml version="1.0" encoding="UTF-8" standalone="no"?>
<!-- Created with Inkscape (http://www.inkscape.org/) -->

<svg
   width="109.15657mm"
   height="115.73375mm"
   viewBox="0 0 109.15657 115.73375"
   version="1.1"
   id="svg5"
   inkscape:version="1.1 (c4e8f9e, 2021-05-24)"
   sodipodi:docname="callTo.svg"
   xmlns:inkscape="http://www.inkscape.org/namespaces/inkscape"
   xmlns:sodipodi="http://sodipodi.sourceforge.net/DTD/sodipodi-0.dtd"
   xmlns="http://www.w3.org/2000/svg"
   xmlns:svg="http://www.w3.org/2000/svg">
  <sodipodi:namedview
     id="namedview7"
     pagecolor="#ffffff"
     bordercolor="#666666"
     borderopacity="1.0"
     inkscape:pageshadow="2"
     inkscape:pageopacity="0.0"
     inkscape:pagecheckerboard="0"
     inkscape:document-units="mm"
     showgrid="false"
     inkscape:zoom="0.73228114"
     inkscape:cx="221.22651"
     inkscape:cy="-58.720616"
     inkscape:window-width="1920"
     inkscape:window-height="1025"
     inkscape:window-x="3520"
     inkscape:window-y="27"
     inkscape:window-maximized="1"
     inkscape:current-layer="layer1" />
  <defs
     id="defs2" />
  <g
     inkscape:label="Calque 1"
     inkscape:groupmode="layer"
     id="layer1"
     transform="translate(-46.780136,-164.05249)">
    <g
       id="g986">
      <path
         style="fill:#009688;stroke-width:0.264583"
         d="m 145.55782,243.15388 c -6.53415,0.0127 -13.02834,-1.02023 -19.23626,-3.05937 -2.90275,-1.01098 -6.1267,-0.32835 -8.37063,1.77244 l -12.18062,9.18924 C 92.689048,244.48844 82.075023,233.87653 75.50489,220.79633 l 8.946356,-11.8872 c 2.258748,-2.26034 3.066521,-5.59223 2.094177,-8.636 -2.046552,-6.21612 -3.085306,-12.72011 -3.07631,-19.26458 0,-4.67598 -3.790685,-8.46667 -8.466667,-8.46667 H 55.246803 c -4.675981,0 -8.466667,3.79069 -8.466667,8.46667 0.06218,54.52772 44.249975,98.71551 98.777684,98.77769 4.67598,0 8.46667,-3.79069 8.46667,-8.46667 v -19.69902 c 0,-4.67598 -3.79069,-8.46667 -8.46667,-8.46667 z"
         id="path899" />
      <g
         id="g905"
         transform="matrix(0.26458333,0,0,0.26458333,43.01307,164.05249)">
	<path
   style="fill:#455a64"
   d="m 416.011,149.475 c -5.891,0 -10.667,-4.776 -10.667,-10.667 V 21.475 H 288.011 c -5.891,0 -10.667,-4.776 -10.667,-10.667 0,-5.891 4.776,-10.667 10.667,-10.667 h 128 c 5.891,0 10.667,4.776 10.667,10.667 v 128 c -10e-4,5.891 -4.776,10.667 -10.667,10.667 z"
   id="path901" />

	<path
   style="fill:#455a64"
   d="m 202.677,234.808 c -5.891,0.011 -10.675,-4.757 -10.686,-10.648 -0.005,-2.84 1.123,-5.565 3.134,-7.571 L 408.459,3.256 c 4.093,-4.237 10.845,-4.354 15.083,-0.262 4.237,4.093 4.354,10.845 0.262,15.083 -0.086,0.089 -0.173,0.176 -0.262,0.262 L 210.208,231.672 c -1.996,2.002 -4.704,3.13 -7.531,3.136 z"
   id="path903" />

</g>
    </g>
    <g
       id="g907"
       transform="matrix(0.26458333,0,0,0.26458333,48.679064,92.036858)">
</g>
    <g
       id="g909"
       transform="matrix(0.26458333,0,0,0.26458333,48.679064,92.036858)">
</g>
    <g
       id="g911"
       transform="matrix(0.26458333,0,0,0.26458333,48.679064,92.036858)">
</g>
    <g
       id="g913"
       transform="matrix(0.26458333,0,0,0.26458333,48.679064,92.036858)">
</g>
    <g
       id="g915"
       transform="matrix(0.26458333,0,0,0.26458333,48.679064,92.036858)">
</g>
    <g
       id="g917"
       transform="matrix(0.26458333,0,0,0.26458333,48.679064,92.036858)">
</g>
    <g
       id="g919"
       transform="matrix(0.26458333,0,0,0.26458333,48.679064,92.036858)">
</g>
    <g
       id="g921"
       transform="matrix(0.26458333,0,0,0.26458333,48.679064,92.036858)">
</g>
    <g
       id="g923"
       transform="matrix(0.26458333,0,0,0.26458333,48.679064,92.036858)">
</g>
    <g
       id="g925"
       transform="matrix(0.26458333,0,0,0.26458333,48.679064,92.036858)">
</g>
    <g
       id="g927"
       transform="matrix(0.26458333,0,0,0.26458333,48.679064,92.036858)">
</g>
    <g
       id="g929"
       transform="matrix(0.26458333,0,0,0.26458333,48.679064,92.036858)">
</g>
    <g
       id="g931"
       transform="matrix(0.26458333,0,0,0.26458333,48.679064,92.036858)">
</g>
    <g
       id="g933"
       transform="matrix(0.26458333,0,0,0.26458333,48.679064,92.036858)">
</g>
    <g
       id="g935"
       transform="matrix(0.26458333,0,0,0.26458333,48.679064,92.036858)">
</g>
  </g>
</svg>
