<?xml version="1.0" encoding="UTF-8" standalone="no"?>
<!-- Created with Inkscape (http://www.inkscape.org/) -->

<svg
   width="112.92072mm"
   height="112.92628mm"
   viewBox="0 0 112.92072 112.92628"
   version="1.1"
   id="svg5"
   inkscape:version="1.1 (c4e8f9e, 2021-05-24)"
   sodipodi:docname="callFrom.svg"
   xmlns:inkscape="http://www.inkscape.org/namespaces/inkscape"
   xmlns:sodipodi="http://sodipodi.sourceforge.net/DTD/sodipodi-0.dtd"
   xmlns="http://www.w3.org/2000/svg"
   xmlns:svg="http://www.w3.org/2000/svg">
  <sodipodi:namedview
     id="namedview7"
     pagecolor="#ffffff"
     bordercolor="#666666"
     borderopacity="1.0"
     inkscape:pageshadow="2"
     inkscape:pageopacity="0.0"
     inkscape:pagecheckerboard="0"
     inkscape:document-units="mm"
     showgrid="false"
     inkscape:zoom="0.73228114"
     inkscape:cx="210.30174"
     inkscape:cy="267.65676"
     inkscape:window-width="1920"
     inkscape:window-height="1025"
     inkscape:window-x="3520"
     inkscape:window-y="27"
     inkscape:window-maximized="1"
     inkscape:current-layer="layer1" />
  <defs
     id="defs2" />
  <g
     inkscape:label="Calque 1"
     inkscape:groupmode="layer"
     id="layer1"
     transform="translate(-49.580493,-77.601122)">
    <g
       id="g1305">
      <path
         style="fill:#009688;stroke-width:0.264583"
         d="m 148.35818,153.89505 c -6.53415,0.0127 -13.02835,-1.02023 -19.23626,-3.05938 -2.90275,-1.01097 -6.1267,-0.32834 -8.37063,1.77245 l -12.18062,9.18924 C 95.489405,155.22961 84.87538,144.6177 78.305247,131.53749 l 8.946356,-11.8872 c 2.258748,-2.26033 3.066521,-5.59223 2.094177,-8.636 -2.046552,-6.21612 -3.085306,-12.720104 -3.07631,-19.264572 0,-4.675982 -3.790685,-8.466667 -8.466667,-8.466667 H 58.04716 c -4.675981,0 -8.466667,3.790685 -8.466667,8.466667 0.06218,54.527712 44.249975,98.715512 98.777687,98.777692 4.67598,0 8.46667,-3.79069 8.46667,-8.46667 v -19.69902 c 0,-4.67598 -3.79069,-8.46667 -8.46667,-8.46667 z"
         id="path948" />
      <g
         id="g954"
         transform="matrix(-0.26458333,0,0,-0.26458333,213.29883,139.72741)">
	<path
   style="fill:#ab3838;fill-opacity:1"
   d="m 416.011,149.475 c -5.891,0 -10.667,-4.776 -10.667,-10.667 V 21.475 H 288.011 c -5.891,0 -10.667,-4.776 -10.667,-10.667 0,-5.891 4.776,-10.667 10.667,-10.667 h 128 c 5.891,0 10.667,4.776 10.667,10.667 v 128 c -10e-4,5.891 -4.776,10.667 -10.667,10.667 z"
   id="path950" />

	<path
   style="fill:#ab3838;fill-opacity:1"
   d="m 202.677,234.808 c -5.891,0.011 -10.675,-4.757 -10.686,-10.648 -0.005,-2.84 1.123,-5.565 3.134,-7.571 L 408.459,3.256 c 4.093,-4.237 10.845,-4.354 15.083,-0.262 4.237,4.093 4.354,10.845 0.262,15.083 -0.086,0.089 -0.173,0.176 -0.262,0.262 L 210.208,231.672 c -1.996,2.002 -4.704,3.13 -7.531,3.136 z"
   id="path952" />

</g>
    </g>
    <g
       id="g956"
       transform="matrix(0.26458333,0,0,0.26458333,49.577583,77.601124)">
</g>
    <g
       id="g958"
       transform="matrix(0.26458333,0,0,0.26458333,49.577583,77.601124)">
</g>
    <g
       id="g960"
       transform="matrix(0.26458333,0,0,0.26458333,49.577583,77.601124)">
</g>
    <g
       id="g962"
       transform="matrix(0.26458333,0,0,0.26458333,49.577583,77.601124)">
</g>
    <g
       id="g964"
       transform="matrix(0.26458333,0,0,0.26458333,49.577583,77.601124)">
</g>
    <g
       id="g966"
       transform="matrix(0.26458333,0,0,0.26458333,49.577583,77.601124)">
</g>
    <g
       id="g968"
       transform="matrix(0.26458333,0,0,0.26458333,49.577583,77.601124)">
</g>
    <g
       id="g970"
       transform="matrix(0.26458333,0,0,0.26458333,49.577583,77.601124)">
</g>
    <g
       id="g972"
       transform="matrix(0.26458333,0,0,0.26458333,49.577583,77.601124)">
</g>
    <g
       id="g974"
       transform="matrix(0.26458333,0,0,0.26458333,49.577583,77.601124)">
</g>
    <g
       id="g976"
       transform="matrix(0.26458333,0,0,0.26458333,49.577583,77.601124)">
</g>
    <g
       id="g978"
       transform="matrix(0.26458333,0,0,0.26458333,49.577583,77.601124)">
</g>
    <g
       id="g980"
       transform="matrix(0.26458333,0,0,0.26458333,49.577583,77.601124)">
</g>
    <g
       id="g982"
       transform="matrix(0.26458333,0,0,0.26458333,49.577583,77.601124)">
</g>
    <g
       id="g984"
       transform="matrix(0.26458333,0,0,0.26458333,49.577583,77.601124)">
</g>
  </g>
</svg>
