<svg id="Capa_1" enable-background="new 0 0 512.307 512.307" height="512" viewBox="0 0 512.307 512.307" width="512" xmlns="http://www.w3.org/2000/svg"><g><g><g><g id="XMLID_172_"><g><path d="m444.077 204.883c9.37 25.04 14.36 52.21 14.02 80.59-1.49 121.87-101.98 219.33-223.86 219.33h-157.93c-6.06 0-10-6.38-7.27-11.79l21.4-42.55c-46.73-40.58-76.34-100.36-76.55-167.06-.37-120.73 94.73-219.16 215.41-222.72 23.66-.7 46.51 2.32 68.03 8.49 69.64 18.54 121.77 68.95 146.75 135.71z" fill="#c8effe"/></g></g><circle cx="393.164" cy="112.754" fill="#f7f6f7" r="105.255"/><path d="m321.752 111.252c0-50.142 34.994-92.649 81.938-103.233-3.485-.349-6.949.03-10.527.03-58.13 0-105.255 47.124-105.255 105.255s47.124 105.255 105.255 105.255c7.988 0 15.483-1.376 22.962-3.062-53.153-5.314-94.373-49.692-94.373-104.245z" fill="#eeeced"/><g fill="#f7f6f7"><circle cx="235.999" cy="282.696" r="18.829"/><circle cx="142.197" cy="282.696" r="18.829"/><circle cx="329.8" cy="282.696" r="18.829"/></g><path d="m393.164 126.249c-11.601 0-21.006-9.405-21.006-21.006v-25.777c0-11.601 9.405-21.006 21.006-21.006 11.601 0 21.006 9.405 21.006 21.006v25.777c0 11.602-9.405 21.006-21.006 21.006z" fill="#fe99a0"/></g><path d="m72.128 277.406c0-96.997 58.936-180.228 142.951-215.84-113.845 10.532-201.547 105.892-201.191 221.837.21 66.7 29.82 126.48 76.55 167.06l-21.4 42.55c-2.73 5.41 1.21 11.79 7.27 11.79h157.93c4.608 0 9.18-.156 13.723-.431-101.112-25.982-175.833-117.747-175.833-226.966z" fill="#99e6fc"/></g><g><path d="m379.833 441.313c-39.993 36.108-91.699 55.993-145.593 55.993h-157.934c-.116 0-.357 0-.545-.304-.187-.303-.078-.519-.025-.623l21.405-42.544c1.541-3.065.808-6.785-1.783-9.034-21.016-18.249-38.069-40.058-50.688-64.82-1.881-3.69-6.396-5.158-10.088-3.277-3.69 1.881-5.158 6.397-3.277 10.088 12.612 24.75 29.366 46.742 49.849 65.445l-18.817 37.4c-2.458 4.884-2.214 10.58.655 15.235 2.868 4.656 7.846 7.435 13.314 7.435h157.934c57.614 0 112.89-21.258 155.646-59.859 3.074-2.776 3.316-7.519.54-10.593-2.777-3.076-7.52-3.316-10.593-.542z"/><path d="m32.31 350.42c-7.176-21.591-10.85-44.146-10.921-67.041-.176-56.437 21.202-109.729 60.198-150.061 39.004-40.341 91.538-63.474 147.926-65.139 12.331-.362 24.742.329 36.898 2.058 4.094.583 7.897-2.269 8.481-6.369.583-4.101-2.269-7.898-6.37-8.481-13-1.849-26.27-2.591-39.452-2.201-60.321 1.781-116.528 26.536-158.268 69.705-41.725 43.158-64.601 100.17-64.413 160.535.076 24.489 4.008 48.62 11.687 71.724 1.046 3.146 3.974 5.137 7.116 5.137.784 0 1.582-.124 2.366-.385 3.931-1.306 6.059-5.551 4.752-9.482z"/><path d="m451.138 226.822c-4.042.903-6.588 4.912-5.685 8.954 3.614 16.189 5.344 32.878 5.14 49.602-.599 49.026-17.466 95-48.778 132.952-2.636 3.195-2.183 7.922 1.012 10.558 1.398 1.153 3.089 1.715 4.77 1.715 2.161 0 4.306-.93 5.789-2.727 33.513-40.62 51.565-89.831 52.206-142.314.219-17.883-1.631-35.733-5.499-53.054-.903-4.043-4.908-6.587-8.955-5.686z"/><path d="m393.164 0c-62.173 0-112.755 50.582-112.755 112.754 0 12.438 2.017 24.668 5.993 36.352 1.334 3.921 5.596 6.016 9.517 4.684 3.921-1.335 6.018-5.596 4.683-9.517-3.445-10.124-5.192-20.728-5.192-31.519 0-53.902 43.853-97.754 97.755-97.754s97.755 43.853 97.755 97.754-43.853 97.754-97.755 97.754c-31.241 0-59.86-14.405-78.52-39.521-2.471-3.325-7.168-4.017-10.493-1.548-3.325 2.47-4.018 7.168-1.548 10.493 21.202 28.538 55.057 45.575 90.561 45.575 62.173 0 112.755-50.582 112.755-112.754s-50.583-112.753-112.756-112.753z"/><path d="m209.67 282.696c0 14.518 11.812 26.329 26.329 26.329s26.329-11.811 26.329-26.329-11.812-26.329-26.329-26.329-26.329 11.811-26.329 26.329zm37.658 0c0 6.247-5.082 11.329-11.329 11.329s-11.329-5.082-11.329-11.329 5.082-11.329 11.329-11.329 11.329 5.082 11.329 11.329z"/><path d="m115.868 282.696c0 14.518 11.812 26.329 26.329 26.329s26.329-11.811 26.329-26.329-11.812-26.329-26.329-26.329-26.329 11.811-26.329 26.329zm37.658 0c0 6.247-5.082 11.329-11.329 11.329s-11.329-5.082-11.329-11.329 5.082-11.329 11.329-11.329 11.329 5.082 11.329 11.329z"/><path d="m356.129 282.696c0-14.518-11.812-26.329-26.329-26.329s-26.329 11.811-26.329 26.329 11.812 26.329 26.329 26.329 26.329-11.811 26.329-26.329zm-37.658 0c0-6.247 5.082-11.329 11.329-11.329s11.329 5.082 11.329 11.329-5.082 11.329-11.329 11.329-11.329-5.082-11.329-11.329z"/><path d="m342.158 71.966c-4.143 0-7.5 3.358-7.5 7.5v25.777c0 29.718 22.278 54.314 51.006 58.009v15.068h-13.506c-4.143 0-7.5 3.358-7.5 7.5s3.357 7.5 7.5 7.5h42.012c4.143 0 7.5-3.358 7.5-7.5s-3.357-7.5-7.5-7.5h-13.506v-15.068c28.728-3.695 51.006-28.291 51.006-58.009v-25.777c0-4.142-3.357-7.5-7.5-7.5s-7.5 3.358-7.5 7.5v25.777c0 23.989-19.517 43.506-43.506 43.506s-43.506-19.517-43.506-43.506v-25.777c0-4.142-3.358-7.5-7.5-7.5z"/><path d="m421.67 105.243v-25.777c0-15.718-12.788-28.506-28.506-28.506s-28.506 12.788-28.506 28.506v25.777c0 15.718 12.788 28.506 28.506 28.506s28.506-12.788 28.506-28.506zm-42.012 0v-25.777c0-7.447 6.059-13.506 13.506-13.506s13.506 6.059 13.506 13.506v25.777c0 7.447-6.059 13.506-13.506 13.506s-13.506-6.059-13.506-13.506z"/></g></g></svg>