<?xml version="1.0" encoding="UTF-8" standalone="no"?>
<!-- Created with Inkscape (http://www.inkscape.org/) -->

<svg
   width="132.08868mm"
   height="135.46666mm"
   viewBox="0 0 132.08868 135.46666"
   version="1.1"
   id="svg1085"
   inkscape:version="1.1 (c4e8f9e, 2021-05-24)"
   sodipodi:docname="chat-vocal-off.svg"
   xmlns:inkscape="http://www.inkscape.org/namespaces/inkscape"
   xmlns:sodipodi="http://sodipodi.sourceforge.net/DTD/sodipodi-0.dtd"
   xmlns="http://www.w3.org/2000/svg"
   xmlns:svg="http://www.w3.org/2000/svg">
  <sodipodi:namedview
     id="namedview1087"
     pagecolor="#ffffff"
     bordercolor="#666666"
     borderopacity="1.0"
     inkscape:pageshadow="2"
     inkscape:pageopacity="0.0"
     inkscape:pagecheckerboard="0"
     inkscape:document-units="mm"
     showgrid="false"
     inkscape:zoom="0.73228114"
     inkscape:cx="249.90402"
     inkscape:cy="200.74257"
     inkscape:window-width="1920"
     inkscape:window-height="1025"
     inkscape:window-x="3520"
     inkscape:window-y="27"
     inkscape:window-maximized="1"
     inkscape:current-layer="layer1" />
  <defs
     id="defs1082" />
  <g
     inkscape:groupmode="layer"
     id="layer3"
     inkscape:label="Calque 2"
     style="display:inline"
     transform="translate(-39.097996,-80.766667)" />
  <g
     inkscape:groupmode="layer"
     id="layer5"
     inkscape:label="Calque 4"
     style="display:inline"
     transform="translate(-39.097996,-80.766667)" />
  <g
     inkscape:groupmode="layer"
     id="layer4"
     inkscape:label="Calque 3"
     style="display:inline"
     transform="translate(-39.097996,-80.766667)" />
  <g
     inkscape:label="Calque 1"
     inkscape:groupmode="layer"
     id="layer1"
     style="display:inline"
     transform="translate(-39.097996,-80.766667)">
    <g
       id="g1580">
      <g
         id="g1557">
        <g
           id="g1535">
          <path
             d="m 154.83385,134.94281 c 2.47766,6.62119 3.79714,13.80562 3.70724,21.30999 -0.39399,32.22545 -26.96604,57.99629 -59.194133,57.99629 H 57.586352 c -1.602414,0 -2.644248,-1.68703 -1.922368,-3.11757 l 5.65869,-11.25127 c -12.35657,-10.73036 -20.186188,-26.53768 -20.241717,-44.17481 -0.09784,-31.924 25.048959,-57.951333 56.959742,-58.892685 6.256291,-0.185097 12.298401,0.613465 17.988821,2.244966 18.41454,4.902439 32.199,18.232089 38.80433,35.885089 z"
             fill="#c8effe"
             id="path1230"
             style="display:inline;fill:#cccccc;stroke-width:0.264425" />
          <circle
             cx="141.3712"
             cy="110.58162"
             fill="#f7f6f7"
             r="27.832029"
             id="circle1235"
             style="display:inline;stroke-width:0.264425" />
          <g
             fill="#f7f6f7"
             id="g1245"
             transform="matrix(0.26442478,0,0,0.26442478,37.40889,80.766666)"
             style="display:inline">
            <circle
               cx="235.99899"
               cy="282.69601"
               r="18.829"
               id="circle1239" />
            <circle
               cx="142.19701"
               cy="282.69601"
               r="18.829"
               id="circle1241" />
            <circle
               cx="329.79999"
               cy="282.69601"
               r="18.829"
               id="circle1243" />
          </g>
          <path
             d="m 141.37119,114.15003 c -3.06759,0 -5.5545,-2.48692 -5.5545,-5.55451 v -6.81607 c 0,-3.067596 2.48691,-5.554511 5.5545,-5.554511 3.0676,0 5.55451,2.486915 5.55451,5.554511 v 6.81607 c 0,3.06786 -2.48691,5.55451 -5.55451,5.55451 z"
             fill="#fe99a0"
             id="path1247"
             style="display:inline;fill:none;stroke:#000000;stroke-width:1.664;stroke-miterlimit:4;stroke-dasharray:none;stroke-opacity:1" />
          <path
             d="m 122.48809,110.18445 c 0,-13.258786 9.25328,-24.49869 21.66644,-27.297362 -0.92152,-0.09228 -1.83749,0.0079 -2.7836,0.0079 -15.37101,0 -27.83203,12.460753 -27.83203,27.832032 0,15.37128 12.46075,27.83203 27.83203,27.83203 2.11222,0 4.09409,-0.36385 6.07172,-0.80967 -14.05497,-1.40515 -24.95456,-13.13979 -24.95456,-27.56496 z"
             fill="#eeeced"
             id="path1237"
             style="display:inline;stroke-width:0.264425" />
          <path
             d="m 56.481321,154.11969 c 0,-25.64841 15.584138,-47.65675 37.799786,-57.073447 -30.103439,2.784922 -53.294021,28.000467 -53.199886,58.659197 0.05553,17.63714 7.885147,33.44445 20.241717,44.17481 l -5.65869,11.25127 c -0.72188,1.43054 0.319954,3.11757 1.922368,3.11757 h 41.760606 c 1.218468,0 2.427418,-0.0412 3.628698,-0.11397 C 76.239405,207.26484 56.481321,182.9999 56.481321,154.11969 Z"
             fill="#99e6fc"
             id="path1251"
             style="fill:#808080;stroke-width:0.264425" />
          <g
             id="g1273"
             transform="matrix(0.26442478,0,0,0.26442478,37.40889,80.766667)">
            <path
               d="M 379.833,441.313 C 339.84,477.421 288.134,497.306 234.24,497.306 H 76.306 c -0.116,0 -0.357,0 -0.545,-0.304 -0.187,-0.303 -0.078,-0.519 -0.025,-0.623 l 21.405,-42.544 c 1.541,-3.065 0.808,-6.785 -1.783,-9.034 -21.016,-18.249 -38.069,-40.058 -50.688,-64.82 -1.881,-3.69 -6.396,-5.158 -10.088,-3.277 -3.69,1.881 -5.158,6.397 -3.277,10.088 12.612,24.75 29.366,46.742 49.849,65.445 l -18.817,37.4 c -2.458,4.884 -2.214,10.58 0.655,15.235 2.868,4.656 7.846,7.435 13.314,7.435 H 234.24 c 57.614,0 112.89,-21.258 155.646,-59.859 3.074,-2.776 3.316,-7.519 0.54,-10.593 -2.777,-3.076 -7.52,-3.316 -10.593,-0.542 z"
               id="path1255" />
            <path
               d="M 32.31,350.42 C 25.134,328.829 21.46,306.274 21.389,283.379 21.213,226.942 42.591,173.65 81.587,133.318 120.591,92.977 173.125,69.844 229.513,68.179 c 12.331,-0.362 24.742,0.329 36.898,2.058 4.094,0.583 7.897,-2.269 8.481,-6.369 0.583,-4.101 -2.269,-7.898 -6.37,-8.481 -13,-1.849 -26.27,-2.591 -39.452,-2.201 -60.321,1.781 -116.528,26.536 -158.268,69.705 -41.725,43.158 -64.601,100.17 -64.413,160.535 0.076,24.489 4.008,48.62 11.687,71.724 1.046,3.146 3.974,5.137 7.116,5.137 0.784,0 1.582,-0.124 2.366,-0.385 3.931,-1.306 6.059,-5.551 4.752,-9.482 z"
               id="path1257" />
            <path
               d="m 451.138,226.822 c -4.042,0.903 -6.588,4.912 -5.685,8.954 3.614,16.189 5.344,32.878 5.14,49.602 -0.599,49.026 -17.466,95 -48.778,132.952 -2.636,3.195 -2.183,7.922 1.012,10.558 1.398,1.153 3.089,1.715 4.77,1.715 2.161,0 4.306,-0.93 5.789,-2.727 33.513,-40.62 51.565,-89.831 52.206,-142.314 0.219,-17.883 -1.631,-35.733 -5.499,-53.054 -0.903,-4.043 -4.908,-6.587 -8.955,-5.686 z"
               id="path1259" />
            <path
               d="m 393.164,0 c -62.173,0 -112.755,50.582 -112.755,112.754 0,12.438 2.017,24.668 5.993,36.352 1.334,3.921 5.596,6.016 9.517,4.684 3.921,-1.335 6.018,-5.596 4.683,-9.517 -3.445,-10.124 -5.192,-20.728 -5.192,-31.519 0,-53.902 43.853,-97.754 97.755,-97.754 53.902,0 97.755,43.853 97.755,97.754 0,53.901 -43.853,97.754 -97.755,97.754 -31.241,0 -59.86,-14.405 -78.52,-39.521 -2.471,-3.325 -7.168,-4.017 -10.493,-1.548 -3.325,2.47 -4.018,7.168 -1.548,10.493 21.202,28.538 55.057,45.575 90.561,45.575 62.173,0 112.755,-50.582 112.755,-112.754 C 505.92,50.581 455.337,0 393.164,0 Z"
               id="path1261" />
            <path
               d="m 209.67,282.696 c 0,14.518 11.812,26.329 26.329,26.329 14.517,0 26.329,-11.811 26.329,-26.329 0,-14.518 -11.812,-26.329 -26.329,-26.329 -14.517,0 -26.329,11.811 -26.329,26.329 z m 37.658,0 c 0,6.247 -5.082,11.329 -11.329,11.329 -6.247,0 -11.329,-5.082 -11.329,-11.329 0,-6.247 5.082,-11.329 11.329,-11.329 6.247,0 11.329,5.082 11.329,11.329 z"
               id="path1263" />
            <path
               d="m 115.868,282.696 c 0,14.518 11.812,26.329 26.329,26.329 14.517,0 26.329,-11.811 26.329,-26.329 0,-14.518 -11.812,-26.329 -26.329,-26.329 -14.517,0 -26.329,11.811 -26.329,26.329 z m 37.658,0 c 0,6.247 -5.082,11.329 -11.329,11.329 -6.247,0 -11.329,-5.082 -11.329,-11.329 0,-6.247 5.082,-11.329 11.329,-11.329 6.247,0 11.329,5.082 11.329,11.329 z"
               id="path1265" />
            <path
               d="m 356.129,282.696 c 0,-14.518 -11.812,-26.329 -26.329,-26.329 -14.517,0 -26.329,11.811 -26.329,26.329 0,14.518 11.812,26.329 26.329,26.329 14.517,0 26.329,-11.811 26.329,-26.329 z m -37.658,0 c 0,-6.247 5.082,-11.329 11.329,-11.329 6.247,0 11.329,5.082 11.329,11.329 0,6.247 -5.082,11.329 -11.329,11.329 -6.247,0 -11.329,-5.082 -11.329,-11.329 z"
               id="path1267" />
            <path
               d="m 342.158,71.966 c -4.143,0 -7.5,3.358 -7.5,7.5 v 25.777 c 0,29.718 22.278,54.314 51.006,58.009 v 15.068 h -13.506 c -4.143,0 -7.5,3.358 -7.5,7.5 0,4.142 3.357,7.5 7.5,7.5 h 42.012 c 4.143,0 7.5,-3.358 7.5,-7.5 0,-4.142 -3.357,-7.5 -7.5,-7.5 h -13.506 v -15.068 c 28.728,-3.695 51.006,-28.291 51.006,-58.009 V 79.466 c 0,-4.142 -3.357,-7.5 -7.5,-7.5 -4.143,0 -7.5,3.358 -7.5,7.5 v 25.777 c 0,23.989 -19.517,43.506 -43.506,43.506 -23.989,0 -43.506,-19.517 -43.506,-43.506 V 79.466 c 0,-4.142 -3.358,-7.5 -7.5,-7.5 z"
               id="path1269" />
            <path
               d="M 421.67,105.243 V 79.466 c 0,-15.718 -12.788,-28.506 -28.506,-28.506 -15.718,0 -28.506,12.788 -28.506,28.506 v 25.777 c 0,15.718 12.788,28.506 28.506,28.506 15.718,0 28.506,-12.788 28.506,-28.506 z m -42.012,0 V 79.466 c 0,-7.447 6.059,-13.506 13.506,-13.506 7.447,0 13.506,6.059 13.506,13.506 v 25.777 c 0,7.447 -6.059,13.506 -13.506,13.506 -7.447,0 -13.506,-6.059 -13.506,-13.506 z"
               id="path1271" />
          </g>
        </g>
      </g>
    </g>
  </g>
</svg>
