<?xml version="1.0" encoding="UTF-8" standalone="no"?>
<!-- Created with Inkscape (http://www.inkscape.org/) -->

<svg
   width="135.46667mm"
   height="117.06804mm"
   viewBox="0 0 135.46667 117.06804"
   version="1.1"
   id="svg1067"
   inkscape:version="1.1 (c4e8f9e, 2021-05-24)"
   sodipodi:docname="delete-bubble.svg"
   xmlns:inkscape="http://www.inkscape.org/namespaces/inkscape"
   xmlns:sodipodi="http://sodipodi.sourceforge.net/DTD/sodipodi-0.dtd"
   xmlns="http://www.w3.org/2000/svg"
   xmlns:svg="http://www.w3.org/2000/svg">
  <sodipodi:namedview
     id="namedview1069"
     pagecolor="#ffffff"
     bordercolor="#666666"
     borderopacity="1.0"
     inkscape:pageshadow="2"
     inkscape:pageopacity="0.0"
     inkscape:pagecheckerboard="0"
     inkscape:document-units="mm"
     showgrid="false"
     inkscape:zoom="0.75544332"
     inkscape:cx="128.40143"
     inkscape:cy="471.24647"
     inkscape:window-width="1920"
     inkscape:window-height="1025"
     inkscape:window-x="3520"
     inkscape:window-y="27"
     inkscape:window-maximized="1"
     inkscape:current-layer="layer1" />
  <defs
     id="defs1064" />
  <g
     inkscape:label="Calque 1"
     inkscape:groupmode="layer"
     id="layer1"
     transform="translate(-70.960062,-23.771406)">
    <g
       id="g1375">
      <path
         id="Shape"
         d="M 186.10673,23.771406 H 91.280062 c -11.217268,0.01244 -20.307557,9.102732 -20.32,20.32 v 54.186667 c 0.01244,11.217267 9.102732,20.307557 20.32,20.319997 h 9.031108 v 17.71227 c -0.0115,1.76401 1.01407,3.37029 2.61903,4.10238 0.59957,0.27977 1.25296,0.4254 1.91459,0.42672 1.0675,-0.002 2.09919,-0.38517 2.91028,-1.07922 l 24.99134,-21.16215 h 53.36032 c 11.21727,-0.0124 20.30756,-9.10273 20.32,-20.319997 V 44.091406 c -0.0124,-11.217268 -9.10273,-20.307557 -20.32,-20.32 z m 15.80444,74.506667 c -0.01,8.724427 -7.08001,15.794487 -15.80444,15.804447 h -53.36032 c -1.06833,4.2e-4 -2.10191,0.37962 -2.91705,1.07018 l -25.00263,21.15764 v -17.71227 c 0,-2.49387 -2.02169,-4.51555 -4.51556,-4.51555 h -9.031108 c -8.724427,-0.01 -15.794491,-7.08002 -15.804444,-15.804447 V 44.091406 c 0.01,-8.724427 7.080017,-15.794491 15.804444,-15.804444 h 94.826668 c 8.72443,0.01 15.79449,7.080017 15.80444,15.804444 z"
         fill-rule="nonzero"
         style="fill:#000000;stroke-width:2.25778" />
      <path
         id="Path"
         d="m 195.13784,96.020296 c -1.24694,0 -2.25778,1.010841 -2.25778,2.257777 0,3.740807 -3.03252,6.773337 -6.77333,6.773337 -1.24694,0 -2.25778,1.01084 -2.25778,2.25777 0,1.24694 1.01084,2.25778 2.25778,2.25778 6.23159,-0.007 11.28142,-5.0573 11.28889,-11.288887 0,-1.246936 -1.01084,-2.257777 -2.25778,-2.257777 z"
         style="fill:#000000;fill-rule:evenodd;stroke-width:2.25778" />
      <path
         id="path1195"
         d="m 91.280062,32.802517 c -6.231587,0.0075 -11.281424,5.057302 -11.288889,11.288889 0,1.246936 1.010842,2.257778 2.257778,2.257778 1.246936,0 2.257778,-1.010842 2.257778,-2.257778 0,-3.740809 3.032524,-6.773333 6.773333,-6.773333 1.246936,0 2.257778,-1.010842 2.257778,-2.257778 0,-1.246936 -1.010842,-2.257778 -2.257778,-2.257778 z"
         style="fill:#000000;fill-rule:evenodd;stroke-width:2.25778" />
      <path
         id="path1197"
         d="m 138.6934,39.575851 c -17.45711,0 -31.60889,14.151782 -31.60889,31.608889 0,17.457106 14.15178,31.60889 31.60889,31.60889 17.4571,0 31.60889,-14.151784 31.60889,-31.60889 -0.0187,-17.449369 -14.15952,-31.590224 -31.60889,-31.608889 z m 0,58.702222 c -14.96324,0 -27.09334,-12.130098 -27.09334,-27.093333 0,-14.963235 12.1301,-27.093334 27.09334,-27.093334 14.96323,0 27.09333,12.130099 27.09333,27.093334 -0.0163,14.956529 -12.1368,27.077156 -27.09333,27.093333 z"
         fill-rule="nonzero"
         style="fill:#d40000;stroke-width:2.25778" />
      <path
         id="path1199"
         d="m 151.57853,58.299602 c -0.88166,-0.881396 -2.31083,-0.881396 -3.19249,0 l -9.69264,9.69264 -9.69264,-9.69264 c -0.88591,-0.855635 -2.2941,-0.843398 -3.165,0.0275 -0.8709,0.870901 -0.88314,2.279091 -0.0275,3.164995 l 9.69264,9.692643 -9.69264,9.69264 c -0.58693,0.566869 -0.82231,1.40632 -0.61569,2.195705 0.20663,0.789386 0.82309,1.405861 1.61248,1.612482 0.78939,0.206632 1.62884,-0.02876 2.19571,-0.615689 l 9.69264,-9.69264 9.69264,9.69264 c 0.8859,0.855634 2.29409,0.843397 3.16499,-0.0275 0.8709,-0.870902 0.88314,-2.279091 0.0275,-3.164996 l -9.69264,-9.692642 9.69264,-9.69264 c 0.8814,-0.881663 0.8814,-2.310836 0,-3.192498 z"
         style="fill:#d40000;fill-rule:evenodd;stroke-width:2.25778" />
    </g>
  </g>
</svg>
