<?xml version="1.0" encoding="UTF-8" standalone="no"?>
<!-- Created with Inkscape (http://www.inkscape.org/) -->

<svg
   width="95.23642mm"
   height="81.012604mm"
   viewBox="0 0 95.23642 81.012604"
   version="1.1"
   id="svg5"
   inkscape:version="1.1 (c4e8f9e, 2021-05-24)"
   sodipodi:docname="delete-bubble-right.svg"
   xmlns:inkscape="http://www.inkscape.org/namespaces/inkscape"
   xmlns:sodipodi="http://sodipodi.sourceforge.net/DTD/sodipodi-0.dtd"
   xmlns="http://www.w3.org/2000/svg"
   xmlns:svg="http://www.w3.org/2000/svg">
  <sodipodi:namedview
     id="namedview7"
     pagecolor="#ffffff"
     bordercolor="#666666"
     borderopacity="1.0"
     inkscape:pageshadow="2"
     inkscape:pageopacity="0.0"
     inkscape:pagecheckerboard="0"
     inkscape:document-units="mm"
     showgrid="false"
     inkscape:zoom="0.73228114"
     inkscape:cx="222.5921"
     inkscape:cy="230.78568"
     inkscape:window-width="1920"
     inkscape:window-height="1025"
     inkscape:window-x="3520"
     inkscape:window-y="27"
     inkscape:window-maximized="1"
     inkscape:current-layer="layer1" />
  <defs
     id="defs2" />
  <g
     inkscape:label="Calque 1"
     inkscape:groupmode="layer"
     id="layer1"
     transform="translate(-46.358504,-87.422183)">
    <g
       id="g1016">
      <path
         id="Shape"
         d="m 60.643966,87.422183 h 66.665494 c 7.88601,0.0086 14.27671,6.299209 14.28546,14.061707 v 37.49788 c -0.009,7.76249 -6.39945,14.05309 -14.28546,14.0617 h -6.3491 v 12.25712 c 0.008,1.22071 -0.71291,2.33228 -1.84123,2.8389 -0.42152,0.19361 -0.88087,0.29438 -1.34601,0.2953 -0.75048,-0.002 -1.47579,-0.26655 -2.046,-0.74684 L 98.157591,153.04347 H 60.643966 c -7.886016,-0.009 -14.276715,-6.29921 -14.285462,-14.0617 v -37.49788 c 0.0087,-7.762498 6.399446,-14.053096 14.285462,-14.061707 z M 49.533051,138.98177 c 0.007,6.03741 4.977427,10.92999 11.110915,10.93688 h 37.513625 c 0.751064,2.9e-4 1.477696,0.2627 2.050759,0.74058 l 17.57747,14.64136 v -12.25712 c 0,-1.72579 1.42129,-3.12482 3.17454,-3.12482 h 6.3491 c 6.13349,-0.007 11.10392,-4.89947 11.11091,-10.93688 v -37.49788 c -0.007,-6.03742 -4.97742,-10.929996 -11.11091,-10.936884 H 60.643966 c -6.133488,0.0069 -11.103917,4.899464 -11.110915,10.936884 z"
         fill-rule="nonzero"
         style="fill:#000000;stroke-width:1.57479" />
      <path
         id="Path"
         d="m 54.294872,137.41935 c 0.876627,0 1.587274,0.69952 1.587274,1.56242 0,2.58868 2.13194,4.68723 4.76182,4.68723 0.876628,0 1.587274,0.69952 1.587274,1.56241 0,0.8629 -0.710646,1.56241 -1.587274,1.56241 -4.380959,-0.005 -7.93112,-3.49972 -7.936368,-7.81205 0,-0.8629 0.710647,-1.56242 1.587274,-1.56242 z"
         style="fill:#000000;fill-rule:evenodd;stroke-width:1.57479" />
      <path
         id="path963"
         d="m 127.30946,93.671829 c 4.38096,0.0052 7.93112,3.499719 7.93637,7.812061 0,0.86289 -0.71065,1.56241 -1.58728,1.56241 -0.87662,0 -1.58727,-0.69952 -1.58727,-1.56241 0,-2.588691 -2.13194,-4.687237 -4.76182,-4.687237 -0.87663,0 -1.58728,-0.699516 -1.58728,-1.562412 0,-0.862896 0.71065,-1.562412 1.58728,-1.562412 z"
         style="fill:#000000;fill-rule:evenodd;stroke-width:1.57479" />
      <path
         id="path965"
         d="m 93.976712,98.359064 c 12.272778,0 22.221828,9.793216 22.221828,21.873766 0,12.08054 -9.94905,21.87376 -22.221828,21.87376 -12.272777,0 -22.22183,-9.79322 -22.22183,-21.87376 0.01312,-12.07519 9.954491,-21.860849 22.22183,-21.873766 z m 0,40.622706 c 10.519528,0 19.047288,-8.39419 19.047288,-18.74894 0,-10.35476 -8.52776,-18.74894 -19.047288,-18.74894 -10.519524,0 -19.047283,8.39418 -19.047283,18.74894 0.01143,10.35011 8.532473,18.73774 19.047283,18.74894 z"
         fill-rule="nonzero"
         style="fill:#d40000;stroke-width:1.57479" />
      <path
         id="path967"
         d="m 84.918142,111.31614 c 0.61983,-0.60993 1.624574,-0.60993 2.244404,0 l 6.814166,6.70744 6.814168,-6.70744 c 0.62281,-0.59211 1.6128,-0.58364 2.22507,0.019 0.61226,0.60268 0.62086,1.57716 0.0193,2.19022 l -6.814163,6.70744 6.814163,6.70743 c 0.41263,0.39228 0.57811,0.97319 0.43285,1.51946 -0.14527,0.54626 -0.57866,0.97287 -1.13362,1.11585 -0.55495,0.143 -1.14511,-0.0199 -1.54363,-0.42606 l -6.814168,-6.70743 -6.814166,6.70743 c -0.622812,0.59211 -1.612804,0.58364 -2.22507,-0.019 -0.612264,-0.60268 -0.620867,-1.57716 -0.01933,-2.19022 l 6.814164,-6.70743 -6.814165,-6.70744 c -0.619643,-0.61012 -0.619643,-1.59912 0,-2.20925 z"
         style="fill:#d40000;fill-rule:evenodd;stroke-width:1.57479" />
    </g>
  </g>
</svg>
