<svg id="Capa_1" enable-background="new 0 0 512 512" height="512" viewBox="0 0 512 512" width="512" xmlns="http://www.w3.org/2000/svg"><g><g><path d="m298.071 445.951h-67.388l-3.729 21.619c-4.003 23.211 13.869 44.43 37.423 44.43 23.553 0 41.426-21.219 37.423-44.43z" fill="#f1d333"/><path d="m301.625 466.555-3.554-20.604-66.074-7.616-4.867 28.22z" fill="#ecc32e"/><path d="m429.309 340.46-134.331-30.904-195.533 30.904-56.027 97.042c-2.168 3.755.542 8.449 4.878 8.449h432.162c4.336 0 7.046-4.694 4.878-8.449z" fill="#f6e266"/><path d="m485.336 437.503-56.027-97.042-14.831-7.275-14.481 7.275 10.244 17.743c17.229 29.842-4.307 67.144-38.765 67.144h-321.04l-7.018 12.155c-2.168 3.755.542 8.449 4.878 8.449h432.162c4.336-.001 7.046-4.695 4.878-8.449z" fill="#f4dd45"/><path d="m429.309 340.46c-4.329-7.499-6.609-16.005-6.609-24.664v-86.469c0-70.166-45.644-129.673-108.86-150.446-1.923-.632-2.734-2.641-1.882-4.476 3.716-8.009 5.468-17.106 4.633-26.671-1.83-20.96-19.751-47.734-52.146-47.734-29.115 0-52.486 23.631-52.486 52.419 0 7.708 1.673 15.033 4.674 21.631.924 2.031-.08 4.285-2.197 4.989-62.969 20.914-108.383 80.297-108.383 150.287l.001 86.47c0 8.659-2.279 17.166-6.609 24.665h329.864zm-183.514-288.041c0-10.263 8.319-18.582 18.582-18.582 10.262 0 18.582 8.319 18.582 18.582s-8.319 18.582-18.582 18.582c-10.262 0-18.582-8.32-18.582-18.582z" fill="#f1d333"/><g fill="#ecc32e"><path d="m313.74 78.847c40.96 28.618 67.753 76.119 67.753 129.877v86.468c0 8.659 2.279 17.165 6.609 24.664l11.895 20.604h29.312c-4.329-7.499-6.609-16.005-6.609-24.664v-86.468c0-70.166-45.644-129.673-108.86-150.446-.033-.012-.067-.023-.1-.035z"/><path d="m264.377 112.564c-9.28 0-18.184-2.059-26.462-6.121-3.831-1.88-5.413-6.509-3.534-10.34 1.88-3.831 6.509-5.413 10.34-3.534 6.142 3.014 12.756 4.541 19.656 4.541 6.839 0 13.398-1.502 19.498-4.464 3.837-1.865 8.461-.263 10.325 3.575s.265 8.461-3.574 10.325c-8.221 3.994-17.052 6.018-26.249 6.018z"/></g></g><path d="m47.008 492.098-18.496-18.496c-3.482-3.482-3.482-9.127 0-12.609l407.363-407.363c3.482-3.482 9.127-3.482 12.609 0l18.496 18.496c3.482 3.482 3.482 9.127 0 12.609l-407.362 407.363c-3.482 3.482-9.128 3.482-12.61 0z" fill="#da4a54"/></g></svg>