<svg id="Capa_1" enable-background="new 0 0 512 512" height="512" viewBox="0 0 512 512" width="512" xmlns="http://www.w3.org/2000/svg"><g><g><path d="m226 452c18.849 0 27.429-.72 47.406-4.982 21.897 38.761 63.49 64.982 111.094 64.982 70.304 0 127.5-57.196 127.5-127.5 0-37.97-16.75-73.696-45.956-98.019-3.184-2.65-7.913-2.22-10.563.964-2.651 3.183-2.22 7.912.963 10.563 25.774 21.464 40.556 52.989 40.556 86.492 0 62.033-50.467 112.5-112.5 112.5s-112.5-50.467-112.5-112.5 50.467-112.5 112.5-112.5c17.782 0 34.797 4.032 50.571 11.985 2.045 1.032 4.45 1.071 6.529.108 2.078-.963 3.603-2.824 4.139-5.051 4.155-17.27 6.261-35.116 6.261-53.042 0-35.479-7.99-69.446-23.749-100.957-15.024-30.041-37.02-56.852-63.609-77.534-3.268-2.543-7.98-1.954-10.524 1.315-2.543 3.27-1.954 7.982 1.315 10.525 51.837 40.321 81.567 101.063 81.567 166.651 0 13.667-1.31 27.282-3.9 40.591-15.381-6.369-31.687-9.591-48.6-9.591-13.993 0-27.463 2.265-40.069 6.449v-85.755c0-4.142-3.357-7.5-7.5-7.5s-7.5 3.358-7.5 7.5v91.823c-42.813 20.584-72.431 64.388-72.431 114.983 0 17.198 3.422 33.61 9.622 48.594-13.315 2.594-26.948 3.906-40.622 3.906-116.346 0-211-94.654-211-211s94.654-211 211-211c37.753 0 74.794 10.087 107.117 29.172 3.569 2.106 8.168.922 10.271-2.646 2.106-3.567.922-8.166-2.645-10.271-34.631-20.447-74.308-31.255-114.743-31.255-124.617 0-226 101.383-226 226s101.383 226 226 226zm158.5 0c-37.22 0-67.5-30.28-67.5-67.5s30.28-67.5 67.5-67.5 67.5 30.28 67.5 67.5-30.28 67.5-67.5 67.5zm0-120c-28.948 0-52.5 23.551-52.5 52.5s23.552 52.5 52.5 52.5 52.5-23.551 52.5-52.5-23.552-52.5-52.5-52.5zm-195.477 7.235c-4.143 0-7.5-3.358-7.5-7.5v-211.47c0-4.142 3.357-7.5 7.5-7.5s7.5 3.358 7.5 7.5v211.47c0 4.142-3.357 7.5-7.5 7.5zm-36.976-26.386c-4.143 0-7.5-3.358-7.5-7.5v-158.698c0-4.142 3.357-7.5 7.5-7.5s7.5 3.358 7.5 7.5v158.698c0 4.142-3.358 7.5-7.5 7.5zm110.93-19.485c-4.143 0-7.5-3.358-7.5-7.5v-119.728c0-4.142 3.357-7.5 7.5-7.5s7.5 3.358 7.5 7.5v119.728c0 4.142-3.358 7.5-7.5 7.5zm-147.908-1.117c-4.143 0-7.5-3.358-7.5-7.5v-117.494c0-4.142 3.357-7.5 7.5-7.5s7.5 3.358 7.5 7.5v117.493c0 4.143-3.357 7.501-7.5 7.501zm110.931-15.618c-4.143 0-7.5-3.358-7.5-7.5v-86.259c0-4.142 3.357-7.5 7.5-7.5s7.5 3.358 7.5 7.5v86.259c0 4.142-3.357 7.5-7.5 7.5zm73.953-5.25c-4.143 0-7.5-3.358-7.5-7.5v-75.759c0-4.142 3.357-7.5 7.5-7.5s7.5 3.358 7.5 7.5v75.759c0 4.142-3.357 7.5-7.5 7.5zm-221.86-22.336c-4.143 0-7.5-3.358-7.5-7.5v-31.086c0-4.142 3.357-7.5 7.5-7.5s7.5 3.358 7.5 7.5v31.086c0 4.142-3.358 7.5-7.5 7.5zm295.814-3.588c-4.143 0-7.5-3.358-7.5-7.5v-23.909c0-4.142 3.357-7.5 7.5-7.5s7.5 3.358 7.5 7.5v23.909c0 4.142-3.357 7.5-7.5 7.5zm-332.791-5.213c-4.143 0-7.5-3.358-7.5-7.5v-13.483c0-4.142 3.357-7.5 7.5-7.5s7.5 3.358 7.5 7.5v13.483c0 4.142-3.357 7.5-7.5 7.5zm369.768-.465c-4.143 0-7.5-3.358-7.5-7.5v-12.555c0-4.142 3.357-7.5 7.5-7.5s7.5 3.358 7.5 7.5v12.555c0 4.142-3.358 7.5-7.5 7.5z"/></g></g></svg>