<?xml version="1.0" encoding="UTF-8" standalone="no"?>
<!-- Created with Inkscape (http://www.inkscape.org/) -->

<svg
   width="88.632172mm"
   height="88.632172mm"
   viewBox="0 0 88.632172 88.632172"
   version="1.1"
   id="svg3894"
   inkscape:version="1.1 (c4e8f9e, 2021-05-24)"
   sodipodi:docname="no.svg"
   xmlns:inkscape="http://www.inkscape.org/namespaces/inkscape"
   xmlns:sodipodi="http://sodipodi.sourceforge.net/DTD/sodipodi-0.dtd"
   xmlns="http://www.w3.org/2000/svg"
   xmlns:svg="http://www.w3.org/2000/svg">
  <sodipodi:namedview
     id="namedview3896"
     pagecolor="#ffffff"
     bordercolor="#666666"
     borderopacity="1.0"
     inkscape:pageshadow="2"
     inkscape:pageopacity="0.0"
     inkscape:pagecheckerboard="0"
     inkscape:document-units="mm"
     showgrid="false"
     inkscape:zoom="0.73228114"
     inkscape:cx="244.44163"
     inkscape:cy="378.27002"
     inkscape:window-width="1920"
     inkscape:window-height="1025"
     inkscape:window-x="3520"
     inkscape:window-y="27"
     inkscape:window-maximized="1"
     inkscape:current-layer="layer1" />
  <defs
     id="defs3891" />
  <g
     inkscape:label="Calque 1"
     inkscape:groupmode="layer"
     id="layer1"
     transform="translate(-40.592672,-48.541577)">
    <g
       id="g3780"
       transform="translate(2.2992163,-31.618326)">
      <circle
         cx="81.413521"
         cy="124.77132"
         fill="#dd5790"
         r="42.019073"
         id="circle1056"
         style="stroke-width:0.264585" />
      <path
         d="m 88.225275,166.24085 c -2.219078,0.36142 -4.493719,0.55007 -6.813868,0.55007 -23.204933,0 -42.01722,-18.81229 -42.01722,-42.01986 0,-23.20494 18.812287,-42.017225 42.01722,-42.017225 2.319885,0 4.59479,0.18865 6.813868,0.550073 -19.967996,3.255724 -35.205998,20.582362 -35.205998,41.467412 0,20.88743 15.238002,38.21433 35.205998,41.46953 z"
         fill="#da387d"
         id="path1058"
         style="stroke-width:0.264585" />
      <path
         d="m 97.877086,131.22138 -6.450328,-6.45032 6.450063,-6.45007 c 1.591746,-1.59174 1.591746,-4.17224 0,-5.76399 l -4.249241,-4.24924 c -1.591746,-1.59175 -4.172248,-1.59175 -5.763993,0 l -6.450063,6.45006 -6.450328,-6.45033 c -1.591745,-1.59174 -4.172247,-1.59174 -5.763993,0 l -4.249241,4.24924 c -1.591746,1.59175 -1.591746,4.17225 0,5.764 l 6.450327,6.45033 -6.450063,6.45006 c -1.591745,1.59174 -1.591745,4.17225 0,5.76399 l 4.249242,4.24924 c 1.591746,1.59175 4.172247,1.59175 5.763993,0 l 6.450063,-6.45006 6.450327,6.45033 c 1.591746,1.59174 4.172247,1.59174 5.763993,0 l 4.249242,-4.24924 c 1.591481,-1.59175 1.591481,-4.17225 0,-5.764 z"
         fill="#f9f6f9"
         id="path1074"
         style="stroke-width:0.264585" />
      <g
         fill="#dddaec"
         id="g1082"
         transform="matrix(0.2645854,0,0,0.2645854,37.409003,80.766799)">
        <path
           d="m 137.992,228.537 -16.06,-16.059 c -6.016,-6.016 -6.016,-15.769 0,-21.785 l 24.378,-24.378 -24.379,-24.379 c -6.016,-6.016 -6.016,-15.769 0,-21.785 l 16.06,-16.06 c 0.618,-0.618 1.284,-1.156 1.972,-1.647 -6.016,-4.289 -14.415,-3.75 -19.813,1.647 l -16.06,16.06 c -6.016,6.016 -6.016,15.769 0,21.785 l 24.379,24.379 -24.378,24.378 c -6.016,6.016 -6.016,15.769 0,21.785 l 16.06,16.059 c 5.398,5.398 13.796,5.936 19.812,1.647 -0.688,-0.49 -1.353,-1.029 -1.971,-1.647 z"
           id="path1076" />
        <path
           d="m 175.236,137.39 33.298,-33.298 c 0.618,-0.618 1.284,-1.156 1.972,-1.647 -6.016,-4.289 -14.415,-3.75 -19.812,1.647 l -24.378,24.379 z"
           id="path1078" />
        <path
           d="m 208.534,228.538 -33.299,-33.299 -8.92,8.92 24.379,24.379 c 5.398,5.398 13.796,5.936 19.812,1.647 -0.688,-0.491 -1.354,-1.029 -1.972,-1.647 z"
           id="path1080" />
      </g>
      <path
         d="m 63.54713,138.38847 4.249242,4.24924 c 2.362747,2.36302 6.207438,2.36328 8.570185,0 l 5.046967,-5.04696 5.047231,5.04696 c 1.181638,1.18164 2.733167,1.7722 4.285225,1.7722 1.551529,0 3.103851,-0.59082 4.284961,-1.7722 l 4.249241,-4.24924 c 2.362748,-2.36275 2.362748,-6.20744 0,-8.57018 l -5.047231,-5.04723 5.046967,-5.04697 c 2.363012,-2.36275 2.363012,-6.20744 0,-8.57019 l -4.249242,-4.24924 c -1.144596,-1.14459 -2.666492,-1.7751 -4.285225,-1.77484 -1.618734,0 -3.140364,0.63025 -4.284961,1.77484 l -5.046966,5.04697 -5.046967,-5.04697 c -2.362747,-2.36301 -6.207438,-2.36301 -8.570185,0 l -4.249242,4.24924 c -2.362748,2.36275 -2.362748,6.20744 0,8.57019 l 5.046967,5.04723 -5.046967,5.04697 c -2.362748,2.36274 -2.362748,6.20743 0,8.57018 z m 2.806457,-5.76373 6.450063,-6.45006 c 0.774971,-0.77497 0.774971,-2.03149 0,-2.80619 l -6.450063,-6.45033 c -0.815452,-0.81545 -0.815452,-2.14208 0,-2.95754 l 4.249242,-4.24924 c 0.407726,-0.40772 0.943247,-0.61145 1.478768,-0.61145 0.535521,0 1.071041,0.20373 1.478768,0.61145 l 6.450327,6.45033 c 0.774971,0.77497 2.031487,0.77497 2.806193,0 l 6.450063,-6.45006 c 0.395026,-0.39503 0.920228,-0.61252 1.478767,-0.61252 0.55854,0 1.083742,0.21749 1.478768,0.61252 l 4.249242,4.24924 c 0.815452,0.81545 0.815452,2.14208 0,2.95754 l -6.450063,6.45006 c -0.774971,0.77497 -0.774971,2.03148 0,2.80619 l 6.450327,6.45033 c 0.815453,0.81545 0.815453,2.14208 0,2.95753 l -4.249241,4.24925 c -0.815717,0.81571 -2.142348,0.81545 -2.957536,0 l -6.450327,-6.45007 c -0.774971,-0.77497 -2.031487,-0.77497 -2.806193,0 l -6.450063,6.45007 c -0.815717,0.81571 -2.142348,0.81545 -2.957535,0 l -4.249242,-4.24925 c -0.815717,-0.81571 -0.815717,-2.14234 -2.65e-4,-2.9578 z"
         id="path1090"
         style="stroke-width:0.264585" />
      <circle
         style="fill:none;stroke:#000000;stroke-width:4.83359;stroke-miterlimit:4;stroke-dasharray:none;stroke-opacity:1"
         id="path1285"
         cx="82.609543"
         cy="124.47599"
         r="41.899292" />
    </g>
  </g>
</svg>
