<?xml version="1.0" encoding="UTF-8" standalone="no"?>
<!-- Created with Inkscape (http://www.inkscape.org/) -->

<svg
   width="12.01129mm"
   height="12.012877mm"
   viewBox="0 0 12.01129 12.012877"
   version="1.1"
   id="svg5"
   inkscape:version="1.1 (c4e8f9e, 2021-05-24)"
   sodipodi:docname="plus.svg"
   xmlns:inkscape="http://www.inkscape.org/namespaces/inkscape"
   xmlns:sodipodi="http://sodipodi.sourceforge.net/DTD/sodipodi-0.dtd"
   xmlns="http://www.w3.org/2000/svg"
   xmlns:svg="http://www.w3.org/2000/svg">
  <sodipodi:namedview
     id="namedview7"
     pagecolor="#ffffff"
     bordercolor="#666666"
     borderopacity="1.0"
     inkscape:pageshadow="2"
     inkscape:pageopacity="0.0"
     inkscape:pagecheckerboard="0"
     inkscape:document-units="mm"
     showgrid="false"
     inkscape:zoom="2.9291246"
     inkscape:cx="32.432898"
     inkscape:cy="53.258233"
     inkscape:window-width="1920"
     inkscape:window-height="1025"
     inkscape:window-x="3520"
     inkscape:window-y="27"
     inkscape:window-maximized="1"
     inkscape:current-layer="g881" />
  <defs
     id="defs2" />
  <g
     inkscape:label="Calque 1"
     inkscape:groupmode="layer"
     id="layer1"
     transform="translate(-94.697892,-103.2285)">
    <g
       id="g935"
       transform="matrix(0.26458333,0,0,0.26458333,94.697099,103.2285)">
      <g
         id="g881">
	<path
   d="M 41.267,18.557 H 26.832 V 4.134 C 26.832,1.851 24.99,0 22.707,0 20.424,0 18.583,1.851 18.583,4.135 V 18.567 H 4.141 c -2.283,0 -4.139,1.851 -4.138,4.135 -0.001,1.141 0.46,2.187 1.207,2.934 0.748,0.749 1.78,1.222 2.92,1.222 H 18.583 V 41.27 c 0,1.142 0.453,2.176 1.201,2.922 0.748,0.748 1.777,1.211 2.919,1.211 2.282,0 4.129,-1.851 4.129,-4.133 V 26.857 h 14.435 c 2.283,0 4.134,-1.867 4.133,-4.15 -10e-4,-2.282 -1.852,-4.15 -4.133,-4.15 z"
   id="path879"
   style="fill:#4d4d4d" />

</g>
      <g
         id="g883">
</g>
      <g
         id="g885">
</g>
      <g
         id="g887">
</g>
      <g
         id="g889">
</g>
      <g
         id="g891">
</g>
      <g
         id="g893">
</g>
      <g
         id="g895">
</g>
      <g
         id="g897">
</g>
      <g
         id="g899">
</g>
      <g
         id="g901">
</g>
      <g
         id="g903">
</g>
      <g
         id="g905">
</g>
      <g
         id="g907">
</g>
      <g
         id="g909">
</g>
      <g
         id="g911">
</g>
    </g>
  </g>
</svg>
