<svg id="Capa_1" enable-background="new 0 0 512 512" height="512" viewBox="0 0 512 512" width="512" xmlns="http://www.w3.org/2000/svg"><g><g><g><path d="m468.134 247.304v-55.339l-57.26-17.894c-3.266-11.12-7.691-21.744-13.146-31.726l27.839-53.147-39.131-39.131-53.147 27.839c-9.982-5.455-20.606-9.88-31.726-13.146l-17.893-57.26h-55.34l-17.894 57.26c-11.12 3.266-21.744 7.691-31.726 13.146l-53.147-27.839-39.13 39.131 27.839 53.147c-5.455 9.982-9.88 20.606-13.146 31.726l-57.26 17.894v55.339l57.26 17.894c3.266 11.12 7.691 21.744 13.146 31.726l-27.839 53.146 39.131 39.131 53.147-27.839c9.982 5.455 20.606 9.88 31.726 13.146l17.894 57.26h55.339l17.894-57.26c11.12-3.266 21.744-7.691 31.726-13.146l53.147 27.839 39.131-39.131-27.839-53.147c5.455-9.982 9.88-20.606 13.146-31.726zm-212.134 45.399c-40.355 0-73.068-32.714-73.068-73.068s32.714-73.068 73.068-73.068c40.355 0 73.068 32.714 73.068 73.068s-32.713 73.068-73.068 73.068z" fill="#9facba"/></g><g><path d="m468.134 247.304v-55.339l-57.26-17.894c-3.266-11.12-7.691-21.744-13.146-31.726l27.839-53.147-39.131-39.131-19.492 10.21c7.661 21.92 11.84 45.474 11.84 70.007 0 117.158-94.976 212.134-212.134 212.134-24.533 0-48.087-4.179-70.007-11.84l-10.21 19.492 39.131 39.131 53.147-27.839c9.982 5.455 20.606 9.88 31.726 13.146l17.894 57.26h55.339l17.894-57.26c11.12-3.266 21.744-7.691 31.726-13.146l53.147 27.839 39.131-39.131-27.839-53.147c5.455-9.982 9.88-20.606 13.146-31.726z" fill="#8d9ca8"/></g><g><path d="m256 113.567c-58.486 0-106.067 47.581-106.067 106.067s47.581 106.067 106.067 106.067 106.067-47.581 106.067-106.067-47.581-106.067-106.067-106.067zm0 162.636c-31.242 0-56.569-25.327-56.569-56.569s25.327-56.569 56.569-56.569 56.569 25.327 56.569 56.569-25.327 56.569-56.569 56.569z" fill="#596c76"/></g></g><g><circle cx="256" cy="415.101" fill="#88f2a9" r="89.399"/></g><g><path d="m308.504 342.744c10.716 14.743 17.042 32.884 17.042 52.504 0 49.374-40.025 89.399-89.399 89.399-19.621 0-37.761-6.326-52.504-17.042 16.25 22.356 42.604 36.895 72.357 36.895 49.374 0 89.399-40.025 89.399-89.399 0-29.754-14.538-56.107-36.895-72.357z" fill="#80e29e"/></g><g><path d="m256 155.565c-35.328 0-64.069 28.741-64.069 64.068 0 35.328 28.741 64.069 64.069 64.069s64.069-28.741 64.069-64.069c0-35.326-28.741-64.068-64.069-64.068zm0 113.138c-27.057 0-49.069-22.013-49.069-49.069s22.012-49.068 49.069-49.068 49.069 22.012 49.069 49.068-22.012 49.069-49.069 49.069z"/><path d="m470.368 184.812-53.48-16.721c-2.838-8.854-6.417-17.489-10.68-25.763l26.005-49.647c1.522-2.906.979-6.465-1.341-8.784l-39.14-39.13c-2.319-2.319-5.877-2.861-8.783-1.34l-49.636 26.004c-8.243-4.251-16.879-7.83-25.764-10.679l-16.721-53.489c-.978-3.131-3.878-5.263-7.158-5.263h-55.34c-3.28 0-6.18 2.132-7.158 5.263l-16.722 53.489c-8.885 2.849-17.521 6.428-25.764 10.679l-49.636-26.004c-2.905-1.522-6.463-.98-8.783 1.34l-39.14 39.13c-2.32 2.319-2.863 5.877-1.341 8.783l5.83 11.13c1.922 3.67 6.455 5.087 10.124 3.164 3.669-1.922 5.086-6.454 3.164-10.123l-3.271-6.245 31.34-31.333 48.256 25.281c2.222 1.164 4.879 1.139 7.08-.063 9.542-5.221 19.715-9.438 30.238-12.536 2.402-.707 4.293-2.566 5.041-4.957l16.255-51.998h44.313l16.255 51.997c.747 2.391 2.638 4.25 5.041 4.957 10.523 3.098 20.696 7.315 30.238 12.536 2.201 1.204 4.858 1.228 7.08.063l48.256-25.281 31.34 31.333-25.281 48.264c-1.163 2.221-1.14 4.875.061 7.075 5.239 9.594 9.458 19.769 12.537 30.242.707 2.403 2.566 4.295 4.957 5.042l51.988 16.254v44.305l-51.988 16.255c-2.39.747-4.25 2.638-4.957 5.04-3.087 10.487-7.305 20.662-12.538 30.243-1.201 2.199-1.224 4.854-.061 7.074l25.281 48.266-31.34 31.333-48.256-25.281c-1.712-.897-3.681-1.081-5.503-.57-9.687-11.939-22.15-21.535-36.399-27.8 43.538-15.907 74.701-57.741 74.701-106.717 0-24.37-7.636-47.607-22.083-67.201-2.459-3.334-7.153-4.044-10.488-1.585-3.333 2.458-4.043 7.153-1.585 10.487 12.532 16.996 19.156 37.155 19.156 58.299 0 54.352-44.218 98.57-98.57 98.57s-98.57-44.219-98.57-98.57c0-54.346 44.218-98.56 98.57-98.56 20.218 0 39.648 6.1 56.188 17.64 3.396 2.37 8.072 1.538 10.442-1.859 2.37-3.396 1.538-8.071-1.859-10.441-19.07-13.306-41.468-20.339-64.771-20.339-62.623 0-113.57 50.942-113.57 113.56 0 48.977 31.163 90.81 74.701 106.717-14.249 6.264-26.712 15.86-36.399 27.799-1.822-.511-3.791-.327-5.503.57l-48.256 25.281-31.34-31.333 25.281-48.266c1.163-2.22 1.14-4.875-.061-7.074-5.233-9.581-9.451-19.756-12.538-30.243-.707-2.402-2.566-4.293-4.957-5.04l-51.986-16.255v-44.305l51.988-16.254c2.391-.747 4.25-2.639 4.957-5.042 3.08-10.474 7.298-20.648 12.537-30.242 1.201-2.199 1.224-4.854.062-7.074l-5.77-11.02c-1.921-3.669-6.455-5.087-10.123-3.165-3.669 1.922-5.087 6.454-3.165 10.124l3.937 7.518c-4.263 8.273-7.843 16.909-10.681 25.764l-53.48 16.721c-3.13.979-5.262 3.878-5.262 7.158v55.33c0 3.28 2.131 6.18 5.262 7.158l53.481 16.722c2.842 8.861 6.421 17.498 10.679 25.762l-26.005 49.648c-1.522 2.906-.979 6.465 1.341 8.784l39.14 39.13c1.441 1.441 3.361 2.196 5.305 2.196 1.184 0 2.378-.28 3.478-.856l38.424-20.13c-5.378 12.041-8.374 25.369-8.374 39.386 0 53.431 43.469 96.9 96.9 96.9 26.828 0 52.689-11.271 70.954-30.925 2.82-3.034 2.646-7.779-.388-10.6-3.034-2.819-7.78-2.646-10.599.389-15.438 16.61-37.295 26.136-59.968 26.136-45.16 0-81.9-36.74-81.9-81.9 0-45.159 36.74-81.899 81.9-81.899s81.9 36.74 81.9 81.899c0 9.829-1.726 19.445-5.128 28.582-1.446 3.882.529 8.201 4.411 9.646 3.88 1.446 8.2-.529 9.646-4.41 4.029-10.817 6.072-22.195 6.072-33.818 0-14.017-2.996-27.345-8.374-39.386l38.424 20.13c1.1.576 2.293.856 3.478.856 1.944 0 3.864-.755 5.305-2.196l39.14-39.13c2.32-2.319 2.863-5.878 1.341-8.784l-26.005-49.648c4.258-8.264 7.837-16.9 10.679-25.762l53.481-16.722c3.13-.979 5.262-3.878 5.262-7.158v-55.33c-.002-3.281-2.133-6.18-5.264-7.158z"/><path d="m256 456.089c-4.142 0-7.5 3.357-7.5 7.5s3.358 7.5 7.5 7.5c30.872 0 55.988-25.116 55.988-55.988 0-30.871-25.116-55.987-55.988-55.987-24.726 0-45.745 16.118-53.14 38.394-2.473-1.405-5.637-1.343-8.095.432-3.359 2.424-4.118 7.111-1.694 10.471l8.358 11.585c1.466 2.031 3.76 3.112 6.088 3.112 1.52 0 3.055-.461 4.382-1.419l11.585-8.358c3.359-2.423 4.118-7.111 1.694-10.47-1.701-2.358-4.518-3.43-7.208-3.023 6.068-15.061 20.822-25.723 38.028-25.723 22.601 0 40.988 18.387 40.988 40.987s-18.385 40.987-40.986 40.987z"/></g></g></svg>