<svg height="512" viewBox="0 0 61 60" width="512" xmlns="http://www.w3.org/2000/svg"><g id="Page-1" fill="none" fill-rule="evenodd"><g id="032---Video-Chat" transform="translate(-1 -1)"><g id="Icons_copy_2" transform="translate(1 1)"><path id="Path" d="m27.652 1.093c-10.2076932.82878727-19.22137733 6.98012201-23.7139296 16.1834292-4.49255226 9.2033072-3.79775472 20.0937928 1.8279296 28.6515708.18170421.2696495.21909922.6114398.1.914l-4 9.992c-.14868731.3714617-.06164234.7957948.22128144 1.0787186.28292377.2829237.70725684.3699687 1.07871856.2212814l9.992-4c.3025602-.1190992.6443505-.0817042.914.1 10.6009583 6.9658339 24.4989319 6.2336095 34.3092335-1.8076057s13.2560746-21.525149 8.5064077-33.2871142c-4.7496669-11.7619651-16.5924313-19.07214663-29.2356412-18.0462801z" fill="#e8edfc"/><path id="Path" d="m28.512 1.049c15.2107579.80738603 27.2044913 13.2450085 27.4588037 28.4750562s-11.3174818 28.0611689-26.4928037 29.3759438c-.327.027-.647.023-.972.039 1.323371.0763154 2.6503826.0632858 3.972-.039 15.7114807-1.4146129 27.4104731-15.1285196 26.3315412-30.8666155s-14.5400013-27.72714374-30.2975412-26.9843845z" fill="#cad9fc"/><rect id="Rectangle" fill="#e8edfc" height="22" rx="4" width="28" x="11" y="19"/><g fill="#cad9fc"><path id="Path" d="m35 19h-3c2.209139 0 4 1.790861 4 4v14c0 2.209139-1.790861 4-4 4h3c2.209139 0 4-1.790861 4-4v-14c0-2.209139-1.790861-4-4-4z"/><path id="Path" d="m49 23.24v13.52c.0030104.6934608-.3544821 1.3386845-.9440263 1.7038347-.5895441.3651501-1.3264632.39778-1.9459737.0861653l-7.11-3.55v-10l7.11-3.55c.6195105-.3116147 1.3564296-.2789848 1.9459737.0861653.5895442.3651502.9470367 1.0103739.9440263 1.7038347z"/></g></g><g id="Icons_copy" fill="#fff" transform="translate(2 2)"><path id="Path" d="m.867 55.834c-.14868731.3714617-.06164234.7957948.22128144 1.0787186.28292377.2829237.70725684.3699687 1.07871856.2212814l1.667-.666c-.05980042-.208862-.04782881-.4317452.034-.633l4-9.992c.11909922-.3025602.08170421-.6443505-.1-.914-5.62607812-8.5575281-6.32136824-19.4479912-1.82922516-28.6515064 4.49214306-9.20351518 13.50556106-15.35525562 23.71322516-16.1844936.26-.021.517-.028.776-.04-.961-.046-1.932-.053-2.915 0-.287.014-.572.021-.86.044-10.2065488.82924404-19.21914893 6.9798411-23.71170647 16.1819175-4.49255754 9.2020765-3.7990035 20.0913275 1.82470647 28.6490825.18170421.2696495.21909922.6114398.1.914z"/></g><g id="Icons"><path id="Path" d="m2.947 20.392 1.869.712c-.89032251 2.4163462-1.46702813 4.9369128-1.716 7.5l-1.993-.165c.2644518-2.7503441.88289736-5.4550351 1.84-8.047z" fill="#fff"/><g fill="#428dff"><path id="Path" d="m2.76 25.569c-.55228475.0027614-1.00223858-.4427153-1.005-.995s.44271525-1.0022386.995-1.005h.01c.55228475 0 1 .4477153 1 1s-.44771525 1-1 1z"/><path id="Path" d="m1.938 57.462c-.29737463.7429234-.12328467 1.5915896.44256287 2.1574371.56584755.5658476 1.4145137.7399375 2.15743713.4425629l9.983-3.994c4.8794371 3.2289781 10.6039281 4.9447599 16.455 4.932.8566667 0 1.7186667-.0356667 2.586-.107 16.511381-1.3776743 28.7796743-15.879619 27.402-32.391s-15.879619-28.77967431-32.391-27.402c-2.8120157.25433706-5.5772807.88427399-8.222 1.873-2.6366349 1.00797448-5.1151733 2.38868203-7.36 4.1-2.265222 1.68362542-4.27065777 3.6910828-5.952 5.958-1.69947496 2.2533754-3.07671397 4.7325403-4.092 7.366-.09773823.2526759-.08810544.5342983.02666952.7797053.11477497.245407.3247462.4333327.58133048.5202947.51265808.1755176 1.07183921-.0892176 1.261-.597.94831208-2.4577447 2.23397093-4.7715941 3.82-6.875 1.5709377-2.1173424 3.4458106-3.9912045 5.564-5.561 2.0947622-1.59775659 4.408017-2.88656517 6.869-3.827 2.4644858-.919705 5.0404498-1.50719967 7.66-1.747 12.2070693-.99146564 23.6419641 6.06561369 28.228826 17.421504 4.5868619 11.3558902 1.2611499 24.3750617-8.2100401 32.1398609-9.47119 7.7647991-22.8897387 8.4731338-33.1257859 1.7486351-.5440817-.3598301-1.2297628-.4307883-1.836-.19l-9.991 4 4-9.993c.23904851-.6058052.16816011-1.2900648-.19-1.834-3.46972541-5.2475369-5.05783327-11.5164209-4.505-17.783.04583963-.5506279-.3633721-1.0341604-.914-1.08s-1.03416037.3633721-1.08.914c-.59204992 6.7093765 1.11046298 13.4210638 4.829 19.037z"/><path id="Path" d="m43.652 51.4c-.3036758.1886362-.4836475.5249524-.4721216.8822614.0115259.3573091.2127983.6813272.528.85.3152016.1686728.6964458.1563748 1.0001216-.0322614 2.9773556-1.8457226 5.5495173-4.2760259 7.561-7.144.3175637-.4520451.208545-1.0759362-.2435-1.3935-.4520451-.3175637-1.0759363-.208545-1.3935.2435-1.8568769 2.6473457-4.2314108 4.8905658-6.98 6.594z"/><path id="Path" d="m16.045 9.731c-2.8683352 2.011379-5.2989853 4.5835477-7.145 7.561-.18863623.3036758-.20093421.6849199-.03226141 1.0001216.1686728.3152016.49269097.5164741.85.528.35730901.0115259.69362521-.1684458.88226141-.4721216 1.705187-2.7491695 3.950488-5.1237453 6.6-6.98.4520451-.3175637.5610637-.9414549.2435-1.39349999-.3175637-.45204506-.9414549-.56106373-1.3935-.24350001z"/><path id="Shape" d="m36 19h-20c-2.7600532.0033061-4.9966939 2.2399468-5 5v14c.0033061 2.7600532 2.2399468 4.9966939 5 5h20c2.7600532-.0033061 4.9966939-2.2399468 5-5v-.382l5.658 2.829c.9299507.465131 2.0344384.4155565 2.9189792-.1310171.8845408-.5465737 1.4229855-1.5121968 1.4230208-2.5519829v-13.528c-.0000353-1.0397861-.53848-2.0054092-1.4230208-2.5519829-.8845408-.5465736-1.9890285-.5961481-2.9189792-.1310171l-5.658 2.829v-.382c-.0033061-2.7600532-2.2399468-4.9966939-5-5zm3 19c0 1.6568542-1.3431458 3-3 3h-20c-1.6568542 0-3-1.3431458-3-3v-14c0-1.6568542 1.3431458-3 3-3h20c1.6568542 0 3 1.3431458 3 3zm8.553-14.658c.3099025-.1548588.6778792-.1382854.9726057.0438055.2947265.1820908.4742093.5037544.4743943.8501945v13.528c-.000185.3464401-.1796678.6681037-.4743943.8501945-.2947265.1820909-.6627032.1986643-.9726057.0438055l-6.553-3.276v-8.764z" fill-rule="nonzero"/><path id="Path" d="m18 23h-1c-1.1045695 0-2 .8954305-2 2v1c0 .5522847.4477153 1 1 1s1-.4477153 1-1v-1h1c.5522847 0 1-.4477153 1-1s-.4477153-1-1-1z"/></g></g></g></g></svg>