<svg id="Capa_1" enable-background="new 0 0 512 512" height="512" viewBox="0 0 512 512" width="512" xmlns="http://www.w3.org/2000/svg" xmlns:xlink="http://www.w3.org/1999/xlink"><linearGradient id="SVGID_1_" gradientUnits="userSpaceOnUse" x1="256" x2="256" y1="451.501" y2="60.5"><stop offset="0" stop-color="#5558ff"/><stop offset="1" stop-color="#00c0ff"/></linearGradient><linearGradient id="SVGID_2_" gradientUnits="userSpaceOnUse" x1="256.003" x2="256.003" y1="330.5" y2="180.5"><stop offset="0" stop-color="#addcff"/><stop offset=".5028" stop-color="#eaf6ff"/><stop offset="1" stop-color="#eaf6ff"/></linearGradient><g id="Chat_4_"><g><g><path d="m256.003 60.5c-140.61 0-256 87.48-256 195 0 33.677 12.235 66.563 33.578 95.64l-32.509 79.793c-2.227 5.566-.923 11.924 3.325 16.172 4.182 4.183 10.516 5.578 16.172 3.325l87.865-35.761c43.228 23.467 94.087 35.83 147.568 35.83 140.61 0 255.997-87.48 255.997-195s-115.386-194.999-255.996-194.999z" fill="url(#SVGID_1_)"/></g></g><g><g><path d="m383.078 182.272c-4.878-2.593-10.825-2.329-15.396.747l-66.68 44.453v-31.972c0-8.291-6.709-15-15-15h-150c-8.291 0-15 6.709-15 15v120c0 8.291 6.709 15 15 15h150c8.291 0 15-6.709 15-15v-31.972l66.68 44.453c4.651 3.101 10.586 3.327 15.396.747 4.878-2.607 7.925-7.69 7.925-13.228v-120c0-5.538-3.047-10.621-7.925-13.228z" fill="url(#SVGID_2_)"/></g></g></g></svg>