<?xml version="1.0" encoding="UTF-8" standalone="no"?>
<!-- Created with Inkscape (http://www.inkscape.org/) -->

<svg
   width="88.632172mm"
   height="88.632172mm"
   viewBox="0 0 88.632172 88.632172"
   version="1.1"
   id="svg5"
   inkscape:version="1.1 (c4e8f9e, 2021-05-24)"
   sodipodi:docname="yes.svg"
   xmlns:inkscape="http://www.inkscape.org/namespaces/inkscape"
   xmlns:sodipodi="http://sodipodi.sourceforge.net/DTD/sodipodi-0.dtd"
   xmlns="http://www.w3.org/2000/svg"
   xmlns:svg="http://www.w3.org/2000/svg">
  <sodipodi:namedview
     id="namedview7"
     pagecolor="#ffffff"
     bordercolor="#666666"
     borderopacity="1.0"
     inkscape:pageshadow="2"
     inkscape:pageopacity="0.0"
     inkscape:pagecheckerboard="0"
     inkscape:document-units="mm"
     showgrid="false"
     inkscape:zoom="0.73228114"
     inkscape:cx="69.645382"
     inkscape:cy="-199.37698"
     inkscape:window-width="1920"
     inkscape:window-height="1025"
     inkscape:window-x="3520"
     inkscape:window-y="27"
     inkscape:window-maximized="1"
     inkscape:current-layer="layer1" />
  <defs
     id="defs2" />
  <g
     inkscape:label="Calque 1"
     inkscape:groupmode="layer"
     id="layer1"
     transform="translate(-86.823912,-201.35596)">
    <g
       id="g3791">
      <circle
         cx="131.4201"
         cy="244.60825"
         fill="#b3e59f"
         r="42.019073"
         id="circle1060"
         style="stroke-width:0.264585" />
      <path
         d="m 138.87325,286.04753 c -2.21908,0.36142 -4.49372,0.55007 -6.81387,0.55007 -23.20493,0 -42.017214,-18.81228 -42.017214,-42.01986 0,-23.20493 18.812284,-42.01722 42.017214,-42.01722 2.31989,0 4.59479,0.18865 6.81387,0.55007 -19.96826,3.25546 -35.206,20.5821 -35.206,41.46715 0,20.88769 15.23774,38.21433 35.206,41.46979 z"
         fill="#95d6a4"
         id="path1062"
         style="stroke-width:0.264585" />
      <g
         id="g1072"
         transform="matrix(0.2645854,0,0,0.2645854,46.039266,150.45366)">
        <path
           d="m 421.32,300.886 c 3.428,-6.909 0.605,-15.282 -6.304,-18.71 l -21.618,-10.708 c -6.909,-3.428 -15.282,-0.605 -18.71,6.304 l -42.78,86.313 -20.833,-34.841 c -3.959,-6.622 -12.523,-8.777 -19.145,-4.818 L 271.225,336.8 c -6.612,3.959 -8.777,12.523 -4.818,19.145 l 41.05,68.664 c 2.621,4.383 7.429,6.994 12.523,6.792 l 29.1,-1.146 c 5.105,-0.202 9.689,-3.173 11.95,-7.747 z"
           fill="#f9f6f9"
           id="path1064" />
        <g
           fill="#dddaec"
           id="g1070">
          <path
             d="m 340.61,378.639 49.993,-100.867 c 1.115,-2.247 2.758,-4.053 4.699,-5.361 l -1.904,-0.943 c -6.909,-3.428 -15.282,-0.605 -18.71,6.304 l -42.78,86.313 z"
             id="path1066" />
          <path
             d="m 323.372,424.609 -41.05,-68.664 c -3.958,-6.622 -1.794,-15.187 4.818,-19.145 l 19.874,-11.878 c -4.36,-3.005 -10.239,-3.393 -15.085,-0.497 l -20.705,12.374 c -6.612,3.959 -8.777,12.523 -4.818,19.145 l 41.05,68.664 c 2.621,4.383 7.429,6.994 12.523,6.792 l 11.793,-0.465 c -3.463,-0.921 -6.504,-3.157 -8.4,-6.326 z"
             id="path1068" />
        </g>
      </g>
      <path
         d="m 156.36133,224.3021 -5.71875,-2.83291 c -1.35891,-0.6747 -2.89933,-0.78 -4.33602,-0.29581 -1.4367,0.48393 -2.59956,1.49888 -3.27451,2.85885 l -9.70394,19.57799 -3.64545,-6.0971 c -1.60577,-2.68449 -5.09909,-3.56476 -7.78808,-1.96005 l -5.48115,3.27636 c -2.68448,1.60815 -3.56185,5.10041 -1.95634,7.78463 l 10.86149,18.16961 c 1.02898,1.72007 2.87949,2.76518 4.87023,2.76518 0.0743,0 0.14896,-0.001 0.22384,-0.005 l 7.6989,-0.30427 c 2.07859,-0.0815 3.94206,-1.28906 4.86176,-3.14936 l 5.59069,-11.27928 c 0.48684,-0.98187 0.0852,-2.17251 -0.89668,-2.65934 -0.98161,-0.48684 -2.17225,-0.0852 -2.65908,0.89668 l -5.59175,11.28086 c -0.27596,0.55801 -0.83556,0.92023 -1.46104,0.94457 l -7.69917,0.30427 c -0.62231,0.0257 -1.20969,-0.29448 -1.53142,-0.83185 l -10.8615,-18.16961 c -0.4834,-0.80778 -0.21881,-1.85898 0.58791,-2.34238 l 5.47824,-3.27477 c 0.81069,-0.48366 1.86321,-0.21881 2.34687,0.58976 l 5.51132,9.21816 c 0.37253,0.62309 1.05543,0.99166 1.78119,0.96467 0.72549,-0.0286 1.37743,-0.45111 1.69996,-1.10173 l 11.31843,-22.83531 c 0.20347,-0.40957 0.55351,-0.71544 0.98585,-0.86096 0.43206,-0.14525 0.89535,-0.11377 1.30625,0.0902 l 5.72008,2.83344 c 0.40825,0.20241 0.71332,0.55193 0.85911,0.98479 0.14578,0.43286 0.11456,0.89641 -0.0889,1.30626 l -6.86334,13.8431 c -0.48684,0.98188 -0.0855,2.17251 0.89641,2.65935 0.98188,0.48737 2.17225,0.0855 2.65935,-0.89641 l 6.86282,-13.84232 c 0.67469,-1.35891 0.7792,-2.89932 0.29448,-4.33761 -0.48445,-1.43749 -1.4994,-2.59982 -2.85805,-3.27319 z"
         id="path1088"
         style="stroke-width:0.264585" />
      <circle
         style="fill:none;stroke:#000000;stroke-width:4.83359;stroke-miterlimit:4;stroke-dasharray:none;stroke-opacity:1"
         id="path1285-3"
         cx="131.14"
         cy="245.67204"
         r="41.899292" />
    </g>
  </g>
</svg>
