<svg height="512" viewBox="0 0 512 512" width="512" xmlns="http://www.w3.org/2000/svg"><g id="BULINE"><circle cx="256" cy="256" fill="#f7bb38" r="256"/></g><g id="Icons"><path d="m68.48 255c0 22.39-35.48 50.12-28.92 70.32 6.8 20.94 52 22.47 64.71 39.89 12.81 17.6.38 61.05 18 73.86 17.43 12.68 54.85-12.48 75.78-5.68 20.2 6.56 35.58 49.13 58 49.13s37.77-42.57 58-49.13c20.93-6.8 58.35 18.36 75.78 5.68 17.6-12.81 5.17-56.26 18-73.86 12.68-17.42 57.91-18.95 64.71-39.89 6.56-20.2-28.92-47.93-28.92-70.32s35.48-50.12 28.92-70.32c-6.8-20.94-52-22.47-64.71-39.89-12.81-17.6-.38-61-18-73.86-17.51-12.68-54.93 12.47-75.83 5.68-20.2-6.56-35.58-49.13-58-49.13s-37.77 42.57-58 49.13c-20.93 6.79-58.35-18.36-75.78-5.68-17.6 12.81-5.17 56.26-18 73.86-12.68 17.42-57.91 19-64.71 39.89-6.51 20.2 28.97 47.93 28.97 70.32z" fill="#db1b1b"/><path d="m119.46 255c0 16.3-25.83 36.49-21.06 51.2 4.95 15.25 37.88 16.36 47.12 29.05s.27 44.45 13.09 53.78 39.94-9.08 55.18-4.13c14.71 4.77 25.91 35.77 42.21 35.77s27.5-31 42.21-35.77c15.24-4.95 42.49 13.36 55.18 4.13s3.76-41 13.09-53.78 42.17-13.8 47.12-29.05c4.77-14.71-21.06-34.9-21.06-51.2s25.83-36.5 21.06-51.2c-5-15.25-37.88-16.36-47.12-29.05s-.27-44.45-13.09-53.78-39.94 9.08-55.18 4.13c-14.71-4.77-25.91-35.77-42.21-35.77s-27.5 31-42.21 35.77c-15.24 5-42.49-13.37-55.18-4.13s-3.76 41-13.09 53.78-42.17 13.8-47.12 29.05c-4.77 14.7 21.06 34.9 21.06 51.2z" fill="#c41a1a"/><path d="m284.22 462.39c-8.68 10.68-17.67 20.13-28.22 20.13-22.39 0-37.77-42.57-58-49.13-20.94-6.8-58.36 18.36-75.78 5.68-17.6-12.81-5.17-56.26-18-73.86-12.68-17.42-57.91-18.95-64.71-39.89-6.51-20.2 28.97-47.93 28.97-70.32s-35.48-50.12-28.92-70.32c6.8-20.94 52-22.47 64.71-39.89 12.81-17.6.38-61 18-73.86 17.42-12.68 54.84 12.48 75.78 5.68 20.2-6.56 35.58-49.13 58-49.13 10.55 0 19.54 9.45 28.22 20.13a234 234 0 0 0 0 414.78z" fill="#c61c1c"/><path d="m158.61 255a232.78 232.78 0 0 0 39.56 130.21c-14.19 3-30.55 10.38-39.56 3.82-12.82-9.33-3.77-41-13.09-53.78s-42.17-13.8-47.12-29.05c-4.78-14.7 21.06-34.9 21.06-51.2s-25.84-36.5-21.06-51.2c4.95-15.25 37.88-16.36 47.12-29.05s.27-44.45 13.09-53.78c9-6.56 25.37.79 39.56 3.82a232.78 232.78 0 0 0 -39.56 130.21z" fill="#ad1a1a"/><circle cx="439.31" cy="210.88" fill="#e24444" r="15.52"/><circle cx="424.59" cy="238.43" fill="#e24444" r="9.42"/><g fill="#fff"><path d="m162 279.52h-35.56v-14h6.13v-30.52h-6.34v-14h57.6v19.26h-15.56v-5.26h-13.08v9h10.1v11.9h-10.1v9.59h6.81z"/><path d="m220.7 279.52h-31.78v-14h4.75v-30.52h-4.75v-14h31.78q4.29 0 8 .15t6.26.42a45.9 45.9 0 0 1 4.8.74 17.68 17.68 0 0 1 10 5.67 15.52 15.52 0 0 1 3.87 10.51 15 15 0 0 1 -2.35 8.24 14.17 14.17 0 0 1 -6.18 5.39l8.07 13.37h4.2v14h-21.15l-12.74-23.88h-7.19v9.88h4.41zm-4.41-45.66v11.14h2.52a48.54 48.54 0 0 0 6.73-.3 5.34 5.34 0 0 0 3.19-1.68 4.83 4.83 0 0 0 1.31-3.57 5 5 0 0 0 -1.31-3.62 5.53 5.53 0 0 0 -3.32-1.68 55.06 55.06 0 0 0 -7.06-.29z"/><path d="m318.38 279.52h-55.8v-14h4.54v-30.52h-4.62v-14h55.88v18.71h-15.38v-4.71h-13.26v9h11.56v11.9h-11.56v9.59h13.26v-4.71h15.35z"/><path d="m383 279.52h-55.8v-14h4.54v-30.52h-4.62v-14h55.88v18.71h-15.39v-4.71h-13.29v9h11.57v11.9h-11.57v9.59h13.29v-4.71h15.39z"/></g></g></svg>