<?xml version="1.0" encoding="UTF-8" standalone="no"?>
<svg
   viewBox="0 0 841.9 595.3"
   version="1.1"
   id="svg1008"
   sodipodi:docname="logo.svg"
   inkscape:version="1.1 (c4e8f9e, 2021-05-24)"
   xmlns:inkscape="http://www.inkscape.org/namespaces/inkscape"
   xmlns:sodipodi="http://sodipodi.sourceforge.net/DTD/sodipodi-0.dtd"
   xmlns="http://www.w3.org/2000/svg"
   xmlns:svg="http://www.w3.org/2000/svg">
  <defs
     id="defs1012">
    <linearGradient
       id="SVGID_1_"
       gradientUnits="userSpaceOnUse"
       x1="307.49121"
       y1="216.7054"
       x2="554.65118"
       y2="-30.454599"
       gradientTransform="matrix(1.0039,0,0,-1.0039,0.1922,516.5609)">
      <stop
         offset="0"
         style="stop-color:#A7F3CE"
         id="stop1424" />
      <stop
         offset="1"
         style="stop-color:#61DB99"
         id="stop1426" />
    </linearGradient>
    <linearGradient
       id="SVGID_2_"
       gradientUnits="userSpaceOnUse"
       x1="388.3985"
       y1="135.8026"
       x2="283.41849"
       y2="240.7726"
       gradientTransform="matrix(1.0039,0,0,-1.0039,0.1922,516.5609)">
      <stop
         offset="0"
         style="stop-color:#61DB99;stop-opacity:0"
         id="stop1431" />
      <stop
         offset="1"
         style="stop-color:#009E74"
         id="stop1433" />
    </linearGradient>
    <linearGradient
       id="SVGID_3_"
       gradientUnits="userSpaceOnUse"
       x1="129.97"
       y1="332.7742"
       x2="390.92001"
       y2="71.824203"
       gradientTransform="matrix(1.0039,0,0,-1.0039,0.1922,516.5609)">
      <stop
         offset="0"
         style="stop-color:#62E1FB"
         id="stop1438" />
      <stop
         offset="1"
         style="stop-color:#00A2F3"
         id="stop1440" />
    </linearGradient>
    <linearGradient
       id="SVGID_4_"
       gradientUnits="userSpaceOnUse"
       x1="179.03841"
       y1="218.1926"
       x2="41.644402"
       y2="355.58261"
       gradientTransform="matrix(1.0039,0,0,-1.0039,0.1922,516.5609)">
      <stop
         offset="0"
         style="stop-color:#00A2F3;stop-opacity:0"
         id="stop1445" />
      <stop
         offset="1"
         style="stop-color:#0075CD"
         id="stop1447" />
    </linearGradient>
    <linearGradient
       id="SVGID_5_"
       gradientUnits="userSpaceOnUse"
       x1="268.87189"
       y1="218.196"
       x2="131.4819"
       y2="355.586"
       gradientTransform="matrix(1.0039,0,0,-1.0039,0.1922,516.5609)">
      <stop
         offset="0"
         style="stop-color:#00A2F3;stop-opacity:0"
         id="stop1454" />
      <stop
         offset="1"
         style="stop-color:#0075CD"
         id="stop1456" />
    </linearGradient>
    <linearGradient
       id="SVGID_6_"
       gradientUnits="userSpaceOnUse"
       x1="358.71039"
       y1="218.1945"
       x2="221.3204"
       y2="355.5845"
       gradientTransform="matrix(1.0039,0,0,-1.0039,0.1922,516.5609)">
      <stop
         offset="0"
         style="stop-color:#00A2F3;stop-opacity:0"
         id="stop1463" />
      <stop
         offset="1"
         style="stop-color:#0075CD"
         id="stop1465" />
    </linearGradient>
    <filter
       style="color-interpolation-filters:sRGB;"
       inkscape:label="Drop Shadow"
       id="filter1724"
       x="-0.24709583"
       y="-0.25579533"
       width="1.4877201"
       height="1.5623318">
      <feFlood
         flood-opacity="0.109804"
         flood-color="rgb(0,0,0)"
         result="flood"
         id="feFlood1714" />
      <feComposite
         in="SourceGraphic"
         in2="flood"
         operator="in"
         result="composite1"
         id="feComposite1716" />
      <feGaussianBlur
         in="composite1"
         stdDeviation="8.83384"
         result="blur"
         id="feGaussianBlur1718" />
      <feOffset
         dx="0.390785"
         dy="7.31269"
         result="offset"
         id="feOffset1720" />
      <feComposite
         in="SourceGraphic"
         in2="offset"
         operator="over"
         result="fbSourceGraphic"
         id="feComposite1722" />
      <feColorMatrix
         result="fbSourceGraphicAlpha"
         in="fbSourceGraphic"
         values="0 0 0 -1 0 0 0 0 -1 0 0 0 0 -1 0 0 0 0 1 0"
         id="feColorMatrix1744" />
      <feFlood
         id="feFlood1746"
         flood-opacity="0.109804"
         flood-color="rgb(0,0,0)"
         result="flood"
         in="fbSourceGraphic" />
      <feComposite
         in2="flood"
         id="feComposite1748"
         in="fbSourceGraphic"
         operator="in"
         result="composite1" />
      <feGaussianBlur
         id="feGaussianBlur1750"
         in="composite1"
         stdDeviation="8.83384"
         result="blur" />
      <feOffset
         id="feOffset1752"
         dx="0.390785"
         dy="7.31269"
         result="offset" />
      <feComposite
         in2="offset"
         id="feComposite1754"
         in="fbSourceGraphic"
         operator="over"
         result="fbSourceGraphic" />
      <feColorMatrix
         result="fbSourceGraphicAlpha"
         in="fbSourceGraphic"
         values="0 0 0 -1 0 0 0 0 -1 0 0 0 0 -1 0 0 0 0 1 0"
         id="feColorMatrix1774" />
      <feFlood
         id="feFlood1776"
         flood-opacity="0.109804"
         flood-color="rgb(0,0,0)"
         result="flood"
         in="fbSourceGraphic" />
      <feComposite
         in2="flood"
         id="feComposite1778"
         in="fbSourceGraphic"
         operator="in"
         result="composite1" />
      <feGaussianBlur
         id="feGaussianBlur1780"
         in="composite1"
         stdDeviation="8.83384"
         result="blur" />
      <feOffset
         id="feOffset1782"
         dx="0.390785"
         dy="7.31269"
         result="offset" />
      <feComposite
         in2="offset"
         id="feComposite1784"
         in="fbSourceGraphic"
         operator="over"
         result="fbSourceGraphic" />
      <feColorMatrix
         result="fbSourceGraphicAlpha"
         in="fbSourceGraphic"
         values="0 0 0 -1 0 0 0 0 -1 0 0 0 0 -1 0 0 0 0 1 0"
         id="feColorMatrix1804" />
      <feFlood
         id="feFlood1806"
         flood-opacity="0.109804"
         flood-color="rgb(0,0,0)"
         result="flood"
         in="fbSourceGraphic" />
      <feComposite
         in2="flood"
         id="feComposite1808"
         in="fbSourceGraphic"
         operator="in"
         result="composite1" />
      <feGaussianBlur
         id="feGaussianBlur1810"
         in="composite1"
         stdDeviation="8.83384"
         result="blur" />
      <feOffset
         id="feOffset1812"
         dx="0.390785"
         dy="7.31269"
         result="offset" />
      <feComposite
         in2="offset"
         id="feComposite1814"
         in="fbSourceGraphic"
         operator="over"
         result="fbSourceGraphic" />
      <feColorMatrix
         result="fbSourceGraphicAlpha"
         in="fbSourceGraphic"
         values="0 0 0 -1 0 0 0 0 -1 0 0 0 0 -1 0 0 0 0 1 0"
         id="feColorMatrix2433" />
      <feFlood
         id="feFlood2435"
         flood-opacity="0.752941"
         flood-color="rgb(0,0,0)"
         result="flood"
         in="fbSourceGraphic" />
      <feComposite
         in2="flood"
         id="feComposite2437"
         in="fbSourceGraphic"
         operator="in"
         result="composite1" />
      <feGaussianBlur
         id="feGaussianBlur2439"
         in="composite1"
         stdDeviation="15.3466"
         result="blur" />
      <feOffset
         id="feOffset2441"
         dx="-4.87657"
         dy="-4.2743"
         result="offset" />
      <feComposite
         in2="offset"
         id="feComposite2443"
         in="fbSourceGraphic"
         operator="over"
         result="composite2" />
    </filter>
  </defs>
  <sodipodi:namedview
     id="namedview1010"
     pagecolor="#ffffff"
     bordercolor="#666666"
     borderopacity="1.0"
     inkscape:pageshadow="2"
     inkscape:pageopacity="0.0"
     inkscape:pagecheckerboard="0"
     showgrid="false"
     inkscape:zoom="1.2091697"
     inkscape:cx="420.95"
     inkscape:cy="297.72495"
     inkscape:window-width="1920"
     inkscape:window-height="1025"
     inkscape:window-x="3520"
     inkscape:window-y="27"
     inkscape:window-maximized="1"
     inkscape:current-layer="svg1008" />
  <g
     id="g1382"
     transform="matrix(1.0682914,0,0,1.0682914,142.14625,59.438449)">
    <g
       fill="#61DAFB"
       id="g885"
       style="fill:#7e20db;fill-opacity:1"
       transform="translate(-175.7,-78)">
      <path
         d="m 666.3,296.5 c 0,-32.5 -40.7,-63.3 -103.1,-82.4 14.4,-63.6 8,-114.2 -20.2,-130.4 -6.5,-3.8 -14.1,-5.6 -22.4,-5.6 v 22.3 c 4.6,0 8.3,0.9 11.4,2.6 13.6,7.8 19.5,37.5 14.9,75.7 -1.1,9.4 -2.9,19.3 -5.1,29.4 -19.6,-4.8 -41,-8.5 -63.5,-10.9 -13.5,-18.5 -27.5,-35.3 -41.6,-50 32.6,-30.3 63.2,-46.9 84,-46.9 V 78 C 493.2,78 457.2,97.6 420.8,131.6 384.4,97.8 348.4,78.4 320.9,78.4 v 22.3 c 20.7,0 51.4,16.5 84,46.6 -14,14.7 -28,31.4 -41.3,49.9 -22.6,2.4 -44,6.1 -63.6,11 -2.3,-10 -4,-19.7 -5.2,-29 -4.7,-38.2 1.1,-67.9 14.6,-75.8 3,-1.8 6.9,-2.6 11.5,-2.6 V 78.5 c -8.4,0 -16,1.8 -22.6,5.6 -28.1,16.2 -34.4,66.7 -19.9,130.1 -62.2,19.2 -102.7,49.9 -102.7,82.3 0,32.5 40.7,63.3 103.1,82.4 -14.4,63.6 -8,114.2 20.2,130.4 6.5,3.8 14.1,5.6 22.5,5.6 27.5,0 63.5,-19.6 99.9,-53.6 36.4,33.8 72.4,53.2 99.9,53.2 8.4,0 16,-1.8 22.6,-5.6 28.1,-16.2 34.4,-66.7 19.9,-130.1 62,-19.1 102.5,-49.9 102.5,-82.3 z M 536.1,229.8 c -3.7,12.9 -8.3,26.2 -13.5,39.5 -4.1,-8 -8.4,-16 -13.1,-24 -4.6,-8 -9.5,-15.8 -14.4,-23.4 14.2,2.1 27.9,4.7 41,7.9 z m -45.8,106.5 c -7.8,13.5 -15.8,26.3 -24.1,38.2 -14.9,1.3 -30,2 -45.2,2 -15.1,0 -30.2,-0.7 -45,-1.9 -8.3,-11.9 -16.4,-24.6 -24.2,-38 -7.6,-13.1 -14.5,-26.4 -20.8,-39.8 6.2,-13.4 13.2,-26.8 20.7,-39.9 7.8,-13.5 15.8,-26.3 24.1,-38.2 14.9,-1.3 30,-2 45.2,-2 15.1,0 30.2,0.7 45,1.9 8.3,11.9 16.4,24.6 24.2,38 7.6,13.1 14.5,26.4 20.8,39.8 -6.3,13.4 -13.2,26.8 -20.7,39.9 z m 32.3,-13 c 5.4,13.4 10,26.8 13.8,39.8 -13.1,3.2 -26.9,5.9 -41.2,8 4.9,-7.7 9.8,-15.6 14.4,-23.7 4.6,-8 8.9,-16.1 13,-24.1 z M 421.2,430 c -9.3,-9.6 -18.6,-20.3 -27.8,-32 9,0.4 18.2,0.7 27.5,0.7 9.4,0 18.7,-0.2 27.8,-0.7 -9,11.7 -18.3,22.4 -27.5,32 z m -74.4,-58.9 c -14.2,-2.1 -27.9,-4.7 -41,-7.9 3.7,-12.9 8.3,-26.2 13.5,-39.5 4.1,8 8.4,16 13.1,24 4.7,8 9.5,15.8 14.4,23.4 z M 420.7,163 c 9.3,9.6 18.6,20.3 27.8,32 -9,-0.4 -18.2,-0.7 -27.5,-0.7 -9.4,0 -18.7,0.2 -27.8,0.7 9,-11.7 18.3,-22.4 27.5,-32 z m -74,58.9 c -4.9,7.7 -9.8,15.6 -14.4,23.7 -4.6,8 -8.9,16 -13,24 -5.4,-13.4 -10,-26.8 -13.8,-39.8 13.1,-3.1 26.9,-5.8 41.2,-7.9 z m -90.5,125.2 c -35.4,-15.1 -58.3,-34.9 -58.3,-50.6 0,-15.7 22.9,-35.6 58.3,-50.6 8.6,-3.7 18,-7 27.7,-10.1 5.7,19.6 13.2,40 22.5,60.9 -9.2,20.8 -16.6,41.1 -22.2,60.6 -9.9,-3.1 -19.3,-6.5 -28,-10.2 z M 310,490 c -13.6,-7.8 -19.5,-37.5 -14.9,-75.7 1.1,-9.4 2.9,-19.3 5.1,-29.4 19.6,4.8 41,8.5 63.5,10.9 13.5,18.5 27.5,35.3 41.6,50 -32.6,30.3 -63.2,46.9 -84,46.9 -4.5,-0.1 -8.3,-1 -11.3,-2.7 z m 237.2,-76.2 c 4.7,38.2 -1.1,67.9 -14.6,75.8 -3,1.8 -6.9,2.6 -11.5,2.6 -20.7,0 -51.4,-16.5 -84,-46.6 14,-14.7 28,-31.4 41.3,-49.9 22.6,-2.4 44,-6.1 63.6,-11 2.3,10.1 4.1,19.8 5.2,29.1 z m 38.5,-66.7 c -8.6,3.7 -18,7 -27.7,10.1 -5.7,-19.6 -13.2,-40 -22.5,-60.9 9.2,-20.8 16.6,-41.1 22.2,-60.6 9.9,3.1 19.3,6.5 28.1,10.2 35.4,15.1 58.3,34.9 58.3,50.6 -0.1,15.7 -23,35.6 -58.4,50.6 z M 320.8,78.4 Z"
         id="path879"
         style="fill:#7e20db;fill-opacity:1" />
      <circle
         cx="420.89999"
         cy="296.5"
         r="45.700001"
         id="circle881"
         style="fill:#7e20db;fill-opacity:1" />
      <path
         d="M 520.5,78.1 Z"
         id="path883"
         style="fill:#7e20db;fill-opacity:1" />
    </g>
    <g
       id="g1573"
       transform="matrix(0.43300696,0,0,0.43300696,139.95577,107.45363)"
       style="filter:url(#filter1724)">
      <path
         style="fill:url(#SVGID_1_)"
         d="m 340.366,164.133 c 93.488,-1.428 169.792,72.153 171.602,165.634 0.266,13.725 -1.106,27.084 -3.932,39.898 -4.786,21.697 -7.631,43.776 -7.631,65.995 v 42.948 c 0,6.58 -5.334,11.914 -11.914,11.914 h -42.948 c -22.219,0 -44.298,2.845 -65.995,7.631 -12.813,2.826 -26.172,4.198 -39.897,3.932 -93.48,-1.809 -167.061,-78.111 -165.635,-171.597 1.391,-91.25 75.101,-164.961 166.35,-166.355 z"
         id="path1429" />
      <path
         style="fill:url(#SVGID_2_)"
         d="m 340.366,164.133 c 93.488,-1.428 169.792,72.153 171.602,165.634 0.266,13.725 -1.106,27.084 -3.932,39.898 -4.786,21.697 -7.631,43.776 -7.631,65.995 v 42.948 c 0,6.58 -5.334,11.914 -11.914,11.914 h -42.948 c -22.219,0 -44.298,2.845 -65.995,7.631 -12.813,2.826 -26.172,4.198 -39.897,3.932 -93.48,-1.809 -167.061,-78.111 -165.635,-171.597 1.391,-91.25 75.101,-164.961 166.35,-166.355 z"
         id="path1436" />
      <path
         style="fill:url(#SVGID_3_)"
         d="M 209.098,9.909 C 95.204,8.169 2.245,97.81 0.039,211.696 c -0.323,16.719 1.348,32.996 4.792,48.606 5.83,26.432 9.296,53.331 9.296,80.4 v 52.322 c 0,8.016 6.498,14.515 14.515,14.515 h 52.322 c 27.068,0 53.967,3.466 80.4,9.296 15.61,3.443 31.886,5.115 48.605,4.791 C 323.853,419.421 413.494,326.465 411.758,212.573 410.062,101.406 320.264,11.606 209.098,9.909 Z"
         id="path1443" />
      <path
         style="fill:url(#SVGID_4_)"
         d="m 132.193,204.739 c -5.816,-6.18 -14.048,-10.061 -23.206,-10.061 -17.613,0 -31.891,14.278 -31.891,31.891 0,9.157 3.88,17.389 10.061,23.206 l 68.794,68.794 c 5.817,6.18 14.049,10.061 23.206,10.061 17.613,0 31.891,-14.278 31.891,-31.891 0,-9.157 -3.881,-17.389 -10.061,-23.206 z"
         id="path1450" />
      <circle
         style="fill:#ffffff"
         cx="108.986"
         cy="226.565"
         r="31.891001"
         id="circle1452" />
      <path
         style="fill:url(#SVGID_5_)"
         d="m 222.383,204.739 c -5.816,-6.18 -14.048,-10.061 -23.206,-10.061 -17.613,0 -31.891,14.278 -31.891,31.891 0,9.157 3.88,17.389 10.061,23.206 l 68.794,68.794 c 5.817,6.18 14.049,10.061 23.206,10.061 17.613,0 31.891,-14.278 31.891,-31.891 0,-9.157 -3.881,-17.389 -10.061,-23.206 z"
         id="path1459" />
      <circle
         style="fill:#ffffff"
         cx="199.17799"
         cy="226.565"
         r="31.891001"
         id="circle1461" />
      <path
         style="fill:url(#SVGID_6_)"
         d="m 312.572,204.739 c -5.816,-6.18 -14.048,-10.061 -23.206,-10.061 -17.613,0 -31.891,14.278 -31.891,31.891 0,9.157 3.881,17.389 10.061,23.206 l 68.794,68.794 c 5.817,6.18 14.049,10.061 23.206,10.061 17.613,0 31.891,-14.278 31.891,-31.891 0,-9.157 -3.881,-17.389 -10.061,-23.206 z"
         id="path1468" />
      <circle
         style="fill:#ffffff"
         cx="289.371"
         cy="226.565"
         r="31.891001"
         id="circle1470" />
    </g>
  </g>
</svg>
